<?xml version="1.0" encoding="UTF-8" standalone="no"?>
<svg
   xmlns:dc="http://purl.org/dc/elements/1.1/"
   xmlns:cc="http://creativecommons.org/ns#"
   xmlns:rdf="http://www.w3.org/1999/02/22-rdf-syntax-ns#"
   xmlns:svg="http://www.w3.org/2000/svg"
   xmlns="http://www.w3.org/2000/svg"
   xmlns:sodipodi="http://sodipodi.sourceforge.net/DTD/sodipodi-0.dtd"
   xmlns:inkscape="http://www.inkscape.org/namespaces/inkscape"
   inkscape:version="1.0 (4035a4fb49, 2020-05-01)"
   sodipodi:docname="Bankruptcy-pana.svg"
   id="svg566"
   version="1.1"
   viewBox="0 0 500 500">
  <metadata
     id="metadata572">
    <rdf:RDF>
      <cc:Work
         rdf:about="">
        <dc:format>image/svg+xml</dc:format>
        <dc:type
           rdf:resource="http://purl.org/dc/dcmitype/StillImage" />
      </cc:Work>
    </rdf:RDF>
  </metadata>
  <defs
     id="defs570" />
  <sodipodi:namedview
     inkscape:current-layer="Character--inject-10"
     inkscape:window-maximized="1"
     inkscape:window-y="-8"
     inkscape:window-x="-8"
     inkscape:cy="245.4559"
     inkscape:cx="577.58069"
     inkscape:zoom="0.64379276"
     showgrid="false"
     id="namedview568"
     inkscape:window-height="657"
     inkscape:window-width="1280"
     inkscape:pageshadow="2"
     inkscape:pageopacity="0"
     guidetolerance="10"
     gridtolerance="10"
     objecttolerance="10"
     borderopacity="1"
     bordercolor="#666666"
     pagecolor="#ffffff" />
  <rect
     y="3.2660284"
     x="-0.27164555"
     height="503.06122"
     width="501.02042"
     id="rect574"
     style="fill:#000000;fill-rule:evenodd;stroke:#20232a;stroke-width:0;stroke-linejoin:round;stroke-miterlimit:1.9;stroke-opacity:1" />
  <g
     transform="translate(7.5478039,-2.626971)"
     id="background-complete--inject-10">
    <path
       d="m 51.25,424.54 v 26.61 H 46.81 V 454 h 4.44 v 17.81 h 83.05 v -16.17 h -6.15 v -3.53 h 6.15 v -5.29 h 2.7 v -2.41 h -3.24 v -19.87 z"
       style="fill:#f5f5f5"
       id="path2" />
    <polygon
       points="128.15,452.11 134.3,452.22 134.3,446.93 137.09,446.93 137.03,444.2 133.79,444.12 133.79,424.54 112.25,424.62 112.25,471.55 134.3,471.55 134.3,455.35 128.15,455.35 "
       style="fill:#e0e0e0"
       id="polygon4" />
    <path
       d="m 113.82,453.66 c 0,0.16 -15,0.29 -33.56,0.29 -18.56,0 -33.57,-0.13 -33.57,-0.29 0,-0.16 15,-0.3 33.57,-0.3 18.57,0 33.56,0.13 33.56,0.3 z"
       style="fill:#e0e0e0"
       id="path6" />
    <path
       d="m 113.82,451 c 0,0.17 -15,0.3 -33.56,0.3 -18.56,0 -33.57,-0.13 -33.57,-0.3 0,-0.17 15,-0.29 33.57,-0.29 18.57,0 33.56,0.08 33.56,0.29 z"
       style="fill:#e0e0e0"
       id="path8" />
    <path
       d="m 118.13,443.68 c 0,0.16 -15,0.3 -33.56,0.3 -18.56,0 -33.57,-0.14 -33.57,-0.3 0,-0.16 15,-0.29 33.57,-0.29 18.57,0 33.56,0.13 33.56,0.29 z"
       style="fill:#e0e0e0"
       id="path10" />
    <path
       d="m 118.54,463.5 c 0,0.17 -15,0.3 -33.56,0.3 -18.56,0 -33.56,-0.13 -33.56,-0.3 0,-0.17 15,-0.29 33.56,-0.29 18.56,0 33.56,0.13 33.56,0.29 z"
       style="fill:#e0e0e0"
       id="path12" />
    <path
       d="m 37.1,382.7 v 26.61 h -4.44 v 2.89 H 37.1 V 430 h 83.05 V 413.8 H 114 v -3.53 h 6.16 V 405 h 2.73 v -2.41 h -3.25 V 382.7 Z"
       style="fill:#f5f5f5"
       id="path14" />
    <polygon
       points="114,410.28 120.15,410.38 120.15,405.09 122.93,405.09 122.88,402.36 119.63,402.28 119.63,382.7 98.09,382.78 98.09,429.71 120.15,429.71 120.15,413.51 114,413.51 "
       style="fill:#e0e0e0"
       id="polygon16" />
    <path
       d="m 99.66,411.82 c 0,0.16 -15,0.29 -33.56,0.29 -18.56,0 -33.56,-0.13 -33.56,-0.29 0,-0.16 15,-0.3 33.56,-0.3 18.56,0 33.56,0.14 33.56,0.3 z"
       style="fill:#e0e0e0"
       id="path18" />
    <path
       d="m 99.66,409.12 c 0,0.16 -15,0.29 -33.56,0.29 -18.56,0 -33.56,-0.13 -33.56,-0.29 0,-0.16 15,-0.3 33.56,-0.3 18.56,0 33.56,0.18 33.56,0.3 z"
       style="fill:#e0e0e0"
       id="path20" />
    <path
       d="m 104,401.84 c 0,0.16 -15,0.3 -33.57,0.3 -18.57,0 -33.56,-0.14 -33.56,-0.3 0,-0.16 15,-0.29 33.56,-0.29 18.56,0 33.57,0.13 33.57,0.29 z"
       style="fill:#e0e0e0"
       id="path22" />
    <path
       d="m 104.39,421.66 c 0,0.17 -15,0.3 -33.56,0.3 -18.56,0 -33.57,-0.13 -33.57,-0.3 0,-0.17 15,-0.29 33.57,-0.29 18.57,0 33.56,0.13 33.56,0.29 z"
       style="fill:#e0e0e0"
       id="path24" />
    <path
       d="m 369.44,424.05 v 26.61 H 365 v 2.89 h 4.44 v 17.81 h 83.05 v -16.21 h -6.15 v -3.53 h 6.15 v -5.29 h 2.73 v -2.41 H 452 v -19.87 z"
       style="fill:#f5f5f5"
       id="path26" />
    <polygon
       points="446.34,451.62 452.49,451.73 452.49,446.44 455.27,446.44 455.22,443.7 451.98,443.62 451.98,424.05 430.43,424.13 430.43,471.06 452.49,471.06 452.49,454.85 446.34,454.85 "
       style="fill:#e0e0e0"
       id="polygon28" />
    <path
       d="m 432,453.16 c 0,0.17 -15,0.3 -33.57,0.3 -18.57,0 -33.56,-0.13 -33.56,-0.3 0,-0.17 15,-0.29 33.56,-0.29 18.56,0 33.57,0.13 33.57,0.29 z"
       style="fill:#e0e0e0"
       id="path30" />
    <path
       d="m 432,450.46 c 0,0.16 -15,0.3 -33.57,0.3 -18.57,0 -33.56,-0.14 -33.56,-0.3 0,-0.16 15,-0.29 33.56,-0.29 18.56,0 33.57,0.13 33.57,0.29 z"
       style="fill:#e0e0e0"
       id="path32" />
    <path
       d="m 436.32,443.19 c 0,0.16 -15,0.29 -33.56,0.29 -18.56,0 -33.57,-0.13 -33.57,-0.29 0,-0.16 15,-0.3 33.57,-0.3 18.57,0 33.56,0.11 33.56,0.3 z"
       style="fill:#e0e0e0"
       id="path34" />
    <path
       d="m 436.73,463 c 0,0.16 -15,0.29 -33.56,0.29 -18.56,0 -33.56,-0.13 -33.56,-0.29 0,-0.16 15,-0.3 33.56,-0.3 18.56,0 33.56,0.15 33.56,0.3 z"
       style="fill:#e0e0e0"
       id="path36" />
    <path
       d="m 363.74,376.74 v 26.61 h -4.45 v 2.89 h 4.45 v 17.81 h 83 v -16.21 h -6.15 v -3.53 h 6.15 V 399 h 2.74 v -2.41 h -3.25 v -19.85 z"
       style="fill:#f5f5f5"
       id="path38" />
    <polygon
       points="440.63,404.31 446.78,404.42 446.78,399.13 449.57,399.13 449.52,396.4 446.27,396.32 446.27,376.74 424.73,376.82 424.73,423.75 446.78,423.75 446.78,407.55 440.63,407.55 "
       style="fill:#e0e0e0"
       id="polygon40" />
    <path
       d="m 426.3,405.86 c 0,0.16 -15,0.29 -33.56,0.29 -18.56,0 -33.56,-0.13 -33.56,-0.29 0,-0.16 15,-0.3 33.56,-0.3 18.56,0 33.56,0.13 33.56,0.3 z"
       style="fill:#e0e0e0"
       id="path42" />
    <path
       d="m 426.3,403.15 c 0,0.17 -15,0.3 -33.56,0.3 -18.56,0 -33.56,-0.13 -33.56,-0.3 0,-0.17 15,-0.29 33.56,-0.29 18.56,0 33.56,0.14 33.56,0.29 z"
       style="fill:#e0e0e0"
       id="path44" />
    <path
       d="m 430.61,395.88 c 0,0.16 -15,0.29 -33.56,0.29 -18.56,0 -33.56,-0.13 -33.56,-0.29 0,-0.16 15,-0.3 33.56,-0.3 18.56,0 33.56,0.14 33.56,0.3 z"
       style="fill:#e0e0e0"
       id="path46" />
    <path
       d="m 431,415.7 c 0,0.17 -15,0.3 -33.56,0.3 -18.56,0 -33.57,-0.13 -33.57,-0.3 0,-0.17 15,-0.29 33.57,-0.29 18.57,0 33.56,0.13 33.56,0.29 z"
       style="fill:#e0e0e0"
       id="path48" />
    <path
       d="m 476.23,172.05 c 1.61,-15.56 -9.08,-29.23 -23.89,-30.53 a 26.15,26.15 0 0 0 -8.12,0.57 c 0.81,1.54 1.8,3.47 2.81,5.46 l 0.62,-0.09 a 21.62,21.62 0 0 1 3.42,-0.1 22.18,22.18 0 0 1 3.38,0.47 20.44,20.44 0 0 1 3.16,1 19.52,19.52 0 0 1 2.84,1.47 18.47,18.47 0 0 1 2.49,1.81 21,21 0 0 1 3.8,4.29 22.11,22.11 0 0 1 2.27,4.5 20.83,20.83 0 0 1 1.25,7.23 6.83,6.83 0 0 1 -0.34,2.68 c 0,0 0,0 0,0 l -0.06,0.69 c -1.2,11.59 -10.92,20.27 -21.9,19.73 L 445,197.7 c 0.49,0.08 1,0.14 1.49,0.18 14.81,1.3 28.13,-10.27 29.74,-25.83 z"
       style="fill:#f5f5f5"
       id="path50" />
    <path
       d="m 447.42,172.39 0.65,0.66 v -0.43 z"
       style="fill:#ebebeb"
       id="path52" />
    <path
       d="m 448.84,164.41 -1.63,2.59 a 5.61,5.61 0 0 0 1.34,0.75 z"
       style="fill:#ebebeb"
       id="path54" />
    <path
       d="m 453.3,176.17 c 0.1,-1.17 -0.76,-1.87 -2.09,-2.48 l -0.21,2.39 1.51,1.56 a 2.08,2.08 0 0 0 0.79,-1.47 z"
       style="fill:#ebebeb"
       id="path56" />
    <path
       d="m 469.64,168.18 a 23,23 0 0 0 -1.67,-6.8 21.31,21.31 0 0 0 -2.3,-4.15 20.23,20.23 0 0 0 -3.65,-3.91 18.79,18.79 0 0 0 -2.34,-1.64 18.81,18.81 0 0 0 -5.6,-2.24 20,20 0 0 0 -3.08,-0.44 20.49,20.49 0 0 0 -3.14,0.09 l 2.87,5.73 2.21,0.16 -0.32,3.66 a 13.64,13.64 0 0 1 6.27,2.51 l -2,4 a 12.5,12.5 0 0 0 -4.71,-2.1 l -0.51,5.7 c 3.45,1.12 7.22,2.65 6.8,7.37 -0.29,3.13 -2.49,5.73 -6.6,6.43 l -3.87,8.67 c 11,0.54 20.76,-8.19 21.91,-19.83 0,-0.24 0,-0.62 0,-0.85 -0.13,-0.39 -0.16,-1.2 -0.27,-2.36 z"
       style="fill:#ebebeb"
       id="path58" />
    <path
       d="m 447.81,149.1 a 20.49,20.49 0 0 1 3.19,-0.1 20,20 0 0 1 3.13,0.43 18.81,18.81 0 0 1 5.6,2.24 18.79,18.79 0 0 1 2.34,1.64 20.23,20.23 0 0 1 3.65,3.91 21.31,21.31 0 0 1 2.3,4.15 23,23 0 0 1 1.67,6.8 15.5,15.5 0 0 0 0.27,2.62 c 0,0 0,0 0,0 a 6.83,6.83 0 0 0 0.34,-2.68 20.83,20.83 0 0 0 -1.25,-7.23 22.11,22.11 0 0 0 -2.27,-4.5 21,21 0 0 0 -3.8,-4.29 18.47,18.47 0 0 0 -2.49,-1.81 19.52,19.52 0 0 0 -2.84,-1.47 20.44,20.44 0 0 0 -3.16,-1 22.18,22.18 0 0 0 -3.38,-0.47 21.68,21.68 0 0 0 -4,0.18 v 0 z"
       style="fill:#e0e0e0"
       id="path60" />
    <path
       d="m 458.46,176.14 c 0.42,-4.72 -3.35,-6.25 -6.8,-7.37 l 0.51,-5.7 a 12.5,12.5 0 0 1 4.71,2.1 l 2,-4 a 13.64,13.64 0 0 0 -6.27,-2.51 l -3.73,5.76 -0.29,3.29 a 5.61,5.61 0 0 1 -1.34,-0.75 l -2,3.13 2.23,2.31 0.69,0.23 v 0.43 l 2.93,3 0.21,-2.39 c 1.33,0.61 2.19,1.31 2.09,2.48 a 2.08,2.08 0 0 1 -0.79,1.47 l 1.08,1.11 -1.73,3.82 c 4.04,-0.68 6.21,-3.28 6.5,-6.41 z"
       style="fill:#e0e0e0"
       id="path62" />
    <path
       d="m 450.68,154.83 c 1.12,2.25 1.89,3.82 1.89,3.82 l 0.32,-3.66 z"
       style="fill:#e0e0e0"
       id="path64" />
    <path
       d="m 445.13,191.45 h -1.05 a 22.26,22.26 0 0 1 -3.4,-0.45 21.31,21.31 0 0 1 -6,-2.31 21.28,21.28 0 0 1 -4.62,-3.56 21,21 0 0 1 -3.1,-4 19.85,19.85 0 0 1 -2.55,-6.88 6.61,6.61 0 0 1 -0.13,-2.7 v 0 c 0,-0.23 0,-0.46 -0.07,-0.69 a 21.76,21.76 0 0 1 19.27,-23.24 l -0.33,-0.62 -3,-5.66 a 28.62,28.62 0 0 0 -22.5,30.08 27.7,27.7 0 0 0 24.85,25.87 l 0.26,-0.56 z"
       style="fill:#f5f5f5"
       id="path66" />
    <path
       d="m 424.22,170.92 0.18,0.83 c 0.12,0.38 0.29,1.17 0.6,2.28 a 22.86,22.86 0 0 0 2.91,6.41 21.55,21.55 0 0 0 3.07,3.68 20.86,20.86 0 0 0 4.41,3.21 19.75,19.75 0 0 0 2.68,1.22 20.26,20.26 0 0 0 6.1,1.23 h 0.86 l 1.23,-0.81 c 2.36,-5.14 4.55,-9.89 4.55,-9.89 l -0.2,-0.2 a 12,12 0 0 1 -3.24,1.17 l 0.32,3.72 -3.29,0.32 -0.31,-3.65 a 14.65,14.65 0 0 1 -6.84,-1.38 l 1.3,-4.29 a 13.13,13.13 0 0 0 5.17,1.25 l -0.37,-4.41 -1.12,-1.12 -0.16,-0.17 0.1,-0.15 c -3.4,-0.55 -6.8,-1.65 -7.16,-5.92 -0.29,-3.48 1.95,-6.74 7.05,-7.89 l -0.31,-3.75 3.28,-0.32 0.31,3.65 a 17.24,17.24 0 0 1 2.7,0.1 l -4.56,-8.49 a 21.76,21.76 0 0 0 -19.26,23.37 z"
       style="fill:#ebebeb"
       id="path68" />
    <path
       d="m 447.24,175.52 -0.27,-0.27 v 0.37 z"
       style="fill:#ebebeb"
       id="path70" />
    <path
       d="m 440.27,163.35 c 0.09,1.17 1.1,1.71 2.56,2.07 l -0.39,-4.62 c -1.62,0.53 -2.26,1.47 -2.17,2.55 z"
       style="fill:#ebebeb"
       id="path72" />
    <path
       d="m 446.05,164.32 2.43,-3.68 a 13.58,13.58 0 0 0 -2.77,-0.3 z"
       style="fill:#ebebeb"
       id="path74" />
    <path
       d="m 441,189.39 a 20.06,20.06 0 0 1 -2.95,-0.84 19.75,19.75 0 0 1 -2.68,-1.22 20.86,20.86 0 0 1 -4.41,-3.21 21.55,21.55 0 0 1 -3.07,-3.68 22.86,22.86 0 0 1 -2.89,-6.44 16.7,16.7 0 0 0 -0.72,-2.53 v 0 a 6.61,6.61 0 0 0 0.13,2.7 19.85,19.85 0 0 0 2.55,6.88 21,21 0 0 0 3.1,4 21.28,21.28 0 0 0 4.62,3.56 21.31,21.31 0 0 0 6,2.31 22.26,22.26 0 0 0 3.4,0.45 h 1.05 l 0.54,-1.18 0.22,-0.49 c -0.57,0 -1.15,0 -1.72,0 A 20.24,20.24 0 0 1 441,189.39 Z"
       style="fill:#e0e0e0"
       id="path76" />
    <path
       d="m 438.55,174.79 -1.3,4.29 a 14.65,14.65 0 0 0 6.84,1.38 l 0.31,3.65 3.29,-0.32 -0.32,-3.72 a 12,12 0 0 0 3.24,-1.17 l -2.25,-2.26 -1.12,-1.12 -0.24,0.1 v -0.37 l -2.2,-2.19 -1.42,-1.43 0.37,4.41 a 13.13,13.13 0 0 1 -5.2,-1.25 z"
       style="fill:#e0e0e0"
       id="path78" />
    <path
       d="m 445,152.31 -3.28,0.32 0.31,3.75 c -5.1,1.15 -7.34,4.41 -7.05,7.89 0.36,4.27 3.76,5.37 7.16,5.92 L 445,166 l 1.08,-1.63 -0.34,-4 a 13.58,13.58 0 0 1 2.77,0.3 l 1.11,-1.7 -0.5,-0.93 -0.71,-1.32 -0.34,-0.63 a 17.24,17.24 0 0 0 -2.7,-0.1 z m -4.76,11 c -0.09,-1.08 0.55,-2 2.17,-2.55 l 0.39,4.62 c -1.43,-0.32 -2.44,-0.86 -2.53,-2.03 z"
       style="fill:#e0e0e0"
       id="path80" />
    <path
       d="M 112.4,240 C 100.13,219.8 74.79,213.12 55.78,225.07 a 39.17,39.17 0 0 0 -9.24,8.1 c 2.38,1.11 5.32,2.53 8.35,4 l 0.67,-0.67 a 30.2,30.2 0 0 1 8.52,-5.76 30.18,30.18 0 0 1 4.72,-1.67 28.59,28.59 0 0 1 4.77,-0.84 29,29 0 0 1 4.65,-0.08 31.06,31.06 0 0 1 8.48,1.69 32.26,32.26 0 0 1 6.84,3.35 31.24,31.24 0 0 1 8.1,7.55 c 1.55,2.12 2.15,3.46 2,3.53 v 0 c 0.19,0.29 0.38,0.58 0.56,0.88 9.14,15 5.36,34.36 -8.35,43.73 l 2.39,10.48 c 0.65,-0.36 1.3,-0.74 1.94,-1.14 C 119.2,286.26 124.66,260.2 112.4,240 Z"
       style="fill:#f5f5f5"
       id="path82" />
    <path
       d="m 78,266.7 1.38,0.21 -0.34,-0.55 z"
       style="fill:#ebebeb"
       id="path84" />
    <path
       d="m 72.47,255.8 0.35,4.55 a 9,9 0 0 0 2.29,-0.32 z"
       style="fill:#ebebeb"
       id="path86" />
    <path
       d="m 88.56,265.89 c -0.94,-1.51 -2.63,-1.57 -4.77,-1.08 l 1.92,3.06 3.25,0.5 a 3.12,3.12 0 0 0 -0.4,-2.48 z"
       style="fill:#ebebeb"
       id="path88" />
    <path
       d="m 100.94,241.35 a 35.2,35.2 0 0 0 -8.22,-6.66 32.69,32.69 0 0 0 -6.56,-2.89 30.46,30.46 0 0 0 -8,-1.37 27.36,27.36 0 0 0 -4.32,0.16 26.35,26.35 0 0 0 -4.41,0.84 27.46,27.46 0 0 0 -4.32,1.57 31.76,31.76 0 0 0 -4.17,2.33 32.72,32.72 0 0 0 -3.7,3 c 3.12,1.53 6.19,3.05 8.69,4.29 l 2.82,-1.83 2.93,4.7 a 20.66,20.66 0 0 1 9.85,-2.71 l 1.3,6.61 a 18.84,18.84 0 0 0 -7.59,1.78 l 4.59,7.33 c 5.18,-1.8 11.11,-3.41 14.91,2.66 2.52,4 2.24,9.17 -2.06,13.76 l 3.18,14 c 13.75,-9.4 17.51,-28.8 8.27,-43.87 l -0.81,-1 c -0.42,-0.46 -1.19,-1.41 -2.38,-2.7 z"
       style="fill:#ebebeb"
       id="path90" />
    <path
       d="m 57.24,238.31 a 32.72,32.72 0 0 1 3.7,-3 31.76,31.76 0 0 1 4.17,-2.31 27.46,27.46 0 0 1 4.36,-1.58 26.35,26.35 0 0 1 4.41,-0.84 27.36,27.36 0 0 1 4.32,-0.16 30.46,30.46 0 0 1 8,1.37 32.69,32.69 0 0 1 6.56,2.89 35.2,35.2 0 0 1 8.22,6.66 c 1.67,1.81 2.51,2.94 2.71,2.92 v 0 c 0.12,-0.07 -0.48,-1.41 -2,-3.53 a 31.24,31.24 0 0 0 -8.1,-7.55 32.26,32.26 0 0 0 -6.84,-3.35 31.06,31.06 0 0 0 -8.48,-1.69 29,29 0 0 0 -4.65,0.08 28.59,28.59 0 0 0 -4.77,0.84 30.18,30.18 0 0 0 -4.72,1.67 31.7,31.7 0 0 0 -4.5,2.51 32.21,32.21 0 0 0 -4.69,3.91 v 0 z"
       style="fill:#e0e0e0"
       id="path92" />
    <path
       d="m 94.74,261.14 c -3.8,-6.07 -9.73,-4.46 -14.91,-2.66 l -4.59,-7.33 a 18.84,18.84 0 0 1 7.59,-1.78 l -1.3,-6.61 a 20.66,20.66 0 0 0 -9.85,2.71 l 0.79,10.33 2.64,4.2 a 9,9 0 0 1 -2.29,0.32 l 0.42,5.61 4.8,0.74 1,-0.34 0.34,0.55 6.29,1 -1.92,-3.06 c 2.14,-0.49 3.83,-0.43 4.77,1.08 a 3.12,3.12 0 0 1 0.4,2.48 l 2.32,0.36 1.4,6.17 c 4.36,-4.6 4.62,-9.75 2.1,-13.77 z"
       style="fill:#e0e0e0"
       id="path94" />
    <path
       d="m 65.93,242.6 5.75,2.87 -2.93,-4.7 z"
       style="fill:#e0e0e0"
       id="path96" />
    <path
       d="m 92.67,291.73 c -0.42,0.32 -0.85,0.63 -1.28,0.93 a 32,32 0 0 1 -4.49,2.56 29.44,29.44 0 0 1 -4.67,1.78 30.68,30.68 0 0 1 -4.68,1 32,32 0 0 1 -8.82,-0.06 32.5,32.5 0 0 1 -7.42,-2 30.2,30.2 0 0 1 -9.35,-6 c -1.9,-1.82 -2.72,-3 -2.61,-3.14 v 0 c -0.23,-0.25 -0.47,-0.5 -0.7,-0.76 -11.72,-13.4 -10.8,-33.67 2,-45.57 l -1,-0.44 -8.82,-4 c -13.88,15.84 -14,40.25 0.37,56.73 a 41.84,41.84 0 0 0 53.52,8.45 c -0.06,-0.3 -0.13,-0.6 -0.2,-0.9 -0.52,-2.63 -1.18,-5.58 -1.85,-8.58 z"
       style="fill:#f5f5f5"
       id="path98" />
    <path
       d="m 48.77,286.11 1,0.83 c 0.49,0.35 1.41,1.14 2.81,2.2 a 34.46,34.46 0 0 0 9.34,5.06 32.8,32.8 0 0 0 7.08,1.63 31.81,31.81 0 0 0 8.24,-0.17 28.49,28.49 0 0 0 4.34,-1 27.82,27.82 0 0 0 4.27,-1.66 30.35,30.35 0 0 0 4.15,-2.4 c 0.35,-0.25 0.7,-0.5 1,-0.77 0.27,-0.75 0.47,-1.33 0.74,-2.09 -1.84,-8.34 -3.55,-16.06 -3.55,-16.06 l -0.43,-0.06 A 17.91,17.91 0 0 1 85,276 l 3.77,4.19 -3.65,3.38 -3.71,-4.11 a 22,22 0 0 1 -9.5,4.54 l -2.35,-6.34 a 19.77,19.77 0 0 0 7.36,-3.22 l -4.48,-5 -2.37,-0.33 h -0.34 v -0.29 c -4.59,2.45 -9.68,4.23 -14,-0.58 -3.53,-3.93 -3.81,-9.9 1.29,-15.93 l -3.81,-4.23 3.66,-3.39 3.7,4.12 a 28.45,28.45 0 0 1 3.34,-2.35 L 50.69,240.4 c -12.85,11.95 -13.75,32.31 -1.92,45.71 z"
       style="fill:#ebebeb"
       id="path100" />
    <path
       d="m 80.68,270.64 -0.57,-0.08 0.37,0.41 z"
       style="fill:#ebebeb"
       id="path102" />
    <path
       d="m 61.17,262.35 c 1.19,1.32 2.9,1 5,0.16 l -4.69,-5.2 c -1.48,2.11 -1.39,3.83 -0.31,5.04 z"
       style="fill:#ebebeb"
       id="path104" />
    <path
       d="m 69,258.24 -0.44,-6.64 a 20,20 0 0 0 -3.6,2.17 z"
       style="fill:#ebebeb"
       id="path106" />
    <path
       d="m 85.85,293 a 27.82,27.82 0 0 1 -4.31,1.68 28.49,28.49 0 0 1 -4.34,1 31.81,31.81 0 0 1 -8.24,0.17 32.8,32.8 0 0 1 -7.06,-1.63 34.46,34.46 0 0 1 -9.34,-5.06 c -2,-1.49 -3,-2.45 -3.19,-2.39 v 0 c -0.11,0.1 0.71,1.32 2.61,3.14 a 30.2,30.2 0 0 0 9.35,6 32.5,32.5 0 0 0 7.42,2 32,32 0 0 0 8.82,0.06 30.68,30.68 0 0 0 4.68,-1 29.44,29.44 0 0 0 4.67,-1.75 32,32 0 0 0 4.49,-2.56 c 0.43,-0.3 0.86,-0.61 1.28,-0.93 l -0.42,-1.91 -0.18,-0.8 c -0.67,0.56 -1.36,1.08 -2.07,1.58 a 30.35,30.35 0 0 1 -4.17,2.4 z"
       style="fill:#e0e0e0"
       id="path108" />
    <path
       d="m 69.56,277.69 2.35,6.31 a 22,22 0 0 0 9.49,-4.58 l 3.71,4.11 3.65,-3.38 L 85,276 a 17.91,17.91 0 0 0 2.82,-4.37 l -4.77,-0.63 -2.37,-0.32 -0.2,0.33 -0.37,-0.41 -4.65,-0.64 -3,-0.42 4.48,5 a 19.77,19.77 0 0 1 -7.38,3.15 z"
       style="fill:#e0e0e0"
       id="path110" />
    <path
       d="m 56.83,244.71 -3.66,3.39 3.83,4.23 c -5.1,6 -4.82,12 -1.29,15.93 4.34,4.81 9.43,3 14,0.58 l -0.5,-7.65 -0.21,-2.95 -4,-4.47 a 20,20 0 0 1 3.6,-2.17 l -0.2,-3.06 -1.46,-0.67 -2.06,-0.94 -1,-0.45 a 28.45,28.45 0 0 0 -3.34,2.35 z m 4.34,17.64 c -1.08,-1.21 -1.16,-2.93 0.29,-5 l 4.69,5.2 c -2.08,0.85 -3.79,1.12 -4.98,-0.2 z"
       style="fill:#e0e0e0"
       id="path112" />
    <path
       d="m 468.47,95.61 c 12,-22.14 4.47,-49 -16.74,-60.07 A 41.6,41.6 0 0 0 439.31,31.4 c 0.26,2.79 0.54,6.26 0.81,9.83 0.33,0.08 0.65,0.16 1,0.26 a 34.56,34.56 0 0 1 5.15,1.94 35.2,35.2 0 0 1 4.73,2.79 31.6,31.6 0 0 1 4.07,3.44 30.76,30.76 0 0 1 3.34,3.93 31.09,31.09 0 0 1 2.59,4.23 33.8,33.8 0 0 1 3,8.71 35.32,35.32 0 0 1 0.6,8.09 33.33,33.33 0 0 1 -2.6,11.5 c -1.12,2.57 -2,3.84 -2.16,3.78 -0.16,-0.06 0,0 0,0 -0.16,0.33 -0.32,0.66 -0.5,1 -8.92,16.49 -28.7,23.41 -44.69,15.86 l -8.35,7.84 c 0.68,0.4 1.38,0.8 2.09,1.17 21.21,10.99 48.11,1.99 60.08,-20.16 z"
       style="fill:#f5f5f5"
       id="path114" />
    <path
       d="m 425.44,78.41 0.54,1.38 0.33,-0.62 z"
       style="fill:#ebebeb"
       id="path116" />
    <path
       d="m 432.45,67.42 -4,2.77 a 9.16,9.16 0 0 0 1.55,1.93 z"
       style="fill:#ebebeb"
       id="path118" />
    <path
       d="m 431.84,87.64 c 0.88,-1.68 0,-3.26 -1.57,-5 l -1.79,3.42 1.29,3.25 a 3.31,3.31 0 0 0 2.07,-1.67 z"
       style="fill:#ebebeb"
       id="path120" />
    <path
       d="m 461.06,85.81 a 37.55,37.55 0 0 0 1.69,-11.14 34.56,34.56 0 0 0 -0.86,-7.58 32.65,32.65 0 0 0 -3,-8.05 30.5,30.5 0 0 0 -5.62,-7.5 31.58,31.58 0 0 0 -3.79,-3.16 30.6,30.6 0 0 0 -9.15,-4.38 c 0.28,3.69 0.53,7.33 0.74,10.3 l 3.2,1.6 -2.74,5.23 a 22.09,22.09 0 0 1 7.79,7.59 l -5.38,4.75 a 20.16,20.16 0 0 0 -5.72,-6 L 434,75.62 c 4.44,3.8 9.11,8.38 5.57,15.14 -2.34,4.48 -7.22,7 -13.75,5.51 l -11.14,10.45 c 16,7.58 35.89,0.59 44.77,-16 0.13,-0.35 0.34,-0.93 0.48,-1.28 0.12,-0.62 0.58,-1.84 1.13,-3.63 z"
       style="fill:#ebebeb"
       id="path122" />
    <path
       d="m 440.33,44 a 30.6,30.6 0 0 1 9.12,4.37 31.58,31.58 0 0 1 3.79,3.16 30.5,30.5 0 0 1 5.62,7.5 32.65,32.65 0 0 1 3,8.05 34.56,34.56 0 0 1 0.86,7.58 37.55,37.55 0 0 1 -1.69,11.14 c -0.77,2.51 -1.36,3.9 -1.23,4.06 0,0 0,0 0,0 0,0 1,-1.21 2.16,-3.78 a 33.33,33.33 0 0 0 2.58,-11.5 35.32,35.32 0 0 0 -0.6,-8.09 33.8,33.8 0 0 0 -3,-8.71 31.09,31.09 0 0 0 -2.58,-4.23 30.76,30.76 0 0 0 -3.34,-3.93 31.6,31.6 0 0 0 -4.02,-3.4 35.2,35.2 0 0 0 -4.73,-2.79 35.59,35.59 0 0 0 -6.12,-2.21 v 0 z"
       style="fill:#e0e0e0"
       id="path124" />
    <path
       d="M 439.53,90.76 C 443.07,84 438.4,79.42 434,75.62 l 4.26,-8.15 a 20.16,20.16 0 0 1 5.72,6 l 5.38,-4.75 a 22.09,22.09 0 0 0 -7.79,-7.59 l -9.08,6.28 -2.49,4.71 a 9.16,9.16 0 0 1 -1.53,-1.93 l -4.93,3.41 1.91,4.81 0.87,0.76 -0.33,0.62 2.5,6.3 1.79,-3.42 c 1.6,1.71 2.45,3.29 1.57,5 a 3.31,3.31 0 0 1 -2.07,1.7 l 0.92,2.32 -4.91,4.61 c 6.52,1.46 11.4,-1.06 13.74,-5.54 z"
       style="fill:#e0e0e0"
       id="path126" />
    <path
       d="m 441.07,54.31 c 0.28,4 0.46,6.83 0.46,6.83 l 2.74,-5.23 z"
       style="fill:#e0e0e0"
       id="path128" />
    <path
       d="m 410.31,105.32 c -0.53,-0.21 -1.05,-0.44 -1.55,-0.68 a 33.73,33.73 0 0 1 -8.9,-6.1 33.45,33.45 0 0 1 -3.41,-3.78 34,34 0 0 1 -6.81,-16 32.06,32.06 0 0 1 0.45,-11.81 c 0.64,-2.73 1.32,-4.13 1.47,-4.09 0.15,0.04 0,0 0,0 0.11,-0.36 0.21,-0.71 0.33,-1.06 6,-18 25.14,-28 42.94,-22.71 l -0.1,-1.09 -1,-10.28 c -22,-4.23 -44.56,8.75 -51.95,30.87 a 44.57,44.57 0 0 0 21,53.74 l 0.72,-0.66 z"
       style="fill:#f5f5f5"
       id="path130" />
    <path
       d="m 391.85,62 -0.25,1.34 c -0.05,0.64 -0.28,1.92 -0.5,3.77 a 36.85,36.85 0 0 0 0.37,11.31 35.12,35.12 0 0 0 2.31,7.37 33.54,33.54 0 0 0 4.58,7.48 32.7,32.7 0 0 0 7.1,6.52 33.11,33.11 0 0 0 4.44,2.52 l 1.27,0.55 2.32,-0.44 12.85,-11.91 -0.17,-0.42 a 19.19,19.19 0 0 1 -5.53,-0.25 l -1.82,5.72 -5.08,-1.56 1.78,-5.61 a 23.5,23.5 0 0 1 -9.31,-6.27 l 4.55,-5.57 a 21.31,21.31 0 0 0 6.93,5 l 2.16,-6.79 -1,-2.36 -0.14,-0.34 0.25,-0.17 c -4.71,-2.9 -9.09,-6.63 -7,-13.2 1.7,-5.36 7,-8.83 15.33,-7.39 l 1.84,-5.77 5.08,1.54 -1.79,5.61 a 31.7,31.7 0 0 1 4,1.81 L 434.86,39.07 C 417,33.73 397.79,43.86 391.85,62 Z"
       style="fill:#ebebeb"
       id="path132" />
    <path
       d="M 423.24,83 423,82.43 422.82,82.99 Z"
       style="fill:#ebebeb"
       id="path134" />
    <path
       d="m 420.36,60.56 c -0.58,1.8 0.59,3.23 2.52,4.66 l 2.27,-7.11 c -2.72,-0.2 -4.27,0.8 -4.79,2.45 z"
       style="fill:#ebebeb"
       id="path136" />
    <path
       d="m 428.35,65.56 5.88,-4 a 23,23 0 0 0 -3.93,-2.14 z"
       style="fill:#ebebeb"
       id="path138" />
    <path
       d="m 405.46,99.74 a 32.7,32.7 0 0 1 -7.1,-6.52 33.54,33.54 0 0 1 -4.58,-7.48 35.12,35.12 0 0 1 -2.31,-7.37 36.85,36.85 0 0 1 -0.37,-11.31 c 0.31,-2.6 0.63,-4.07 0.47,-4.21 0,0 0,0 0,0 0,0 -0.83,1.36 -1.47,4.09 a 32.06,32.06 0 0 0 -0.45,11.81 34,34 0 0 0 6.81,16 33.45,33.45 0 0 0 3.41,3.78 33.73,33.73 0 0 0 8.9,6.1 c 0.5,0.24 1,0.47 1.55,0.68 l 1.52,-1.41 0.64,-0.59 c -0.88,-0.33 -1.73,-0.68 -2.57,-1.06 a 33.11,33.11 0 0 1 -4.45,-2.51 z"
       style="fill:#e0e0e0"
       id="path140" />
    <path
       d="m 410.76,76.52 -4.55,5.57 a 23.5,23.5 0 0 0 9.31,6.27 l -1.78,5.64 5.08,1.54 1.82,-5.72 a 19.19,19.19 0 0 0 5.53,0.25 l -2,-4.74 -1,-2.35 h -0.42 l 0.18,-0.56 -1.91,-4.62 -1.24,-3 -2.16,6.79 a 21.31,21.31 0 0 1 -6.86,-5.07 z"
       style="fill:#e0e0e0"
       id="path142" />
    <path
       d="m 434.23,47.08 -5.08,-1.54 -1.84,5.77 c -8.29,-1.44 -13.63,2 -15.33,7.39 -2.09,6.57 2.29,10.3 7,13.2 l 6.76,-4.58 2.61,-1.76 1.95,-6.12 a 23,23 0 0 1 3.93,2.14 l 2.7,-1.83 -0.17,-1.7 -0.24,-2.4 -0.12,-1.15 a 31.7,31.7 0 0 0 -4,-1.81 z m -13.87,13.48 c 0.52,-1.65 2.07,-2.65 4.79,-2.45 l -2.27,7.11 c -1.88,-1.43 -3.1,-2.86 -2.52,-4.66 z"
       style="fill:#e0e0e0"
       id="path144" />
  </g>
  <g
     transform="translate(7.5478039,-2.626971)"
     id="Chart--inject-10">
    <rect
       x="91.360001"
       y="43.66"
       width="312.84"
       height="203.00999"
       style="fill:#ffffff"
       id="rect147" />
    <path
       d="M 404.7,247.17 H 90.86 v -204 H 404.7 Z m -312.84,-1 H 403.7 v -202 H 91.86 Z"
       style="fill:#e0e0e0"
       id="path149" />
    <path
       d="m 143.78,246.67 c -0.14,0 -0.26,-45.63 -0.26,-101.92 0,-56.29 0.12,-101.92 0.26,-101.92 0.14,0 0.26,45.62 0.26,101.92 0,56.3 -0.12,101.92 -0.26,101.92 z"
       style="fill:#e0e0e0"
       id="path151" />
    <path
       d="m 196.2,246.67 c -0.15,0 -0.26,-45.45 -0.26,-101.5 0,-56.05 0.11,-101.51 0.26,-101.51 0.15,0 0.26,45.44 0.26,101.51 0,56.07 -0.12,101.5 -0.26,101.5 z"
       style="fill:#e0e0e0"
       id="path153" />
    <path
       d="m 247.84,246.67 c -0.15,0 -0.26,-45.45 -0.26,-101.5 0,-56.05 0.11,-101.51 0.26,-101.51 0.15,0 0.26,45.44 0.26,101.51 0,56.07 -0.1,101.5 -0.26,101.5 z"
       style="fill:#e0e0e0"
       id="path155" />
    <path
       d="m 299.48,246.67 c -0.15,0 -0.26,-45.45 -0.26,-101.5 0,-56.05 0.11,-101.51 0.26,-101.51 0.15,0 0.26,45.44 0.26,101.51 0,56.07 -0.12,101.5 -0.26,101.5 z"
       style="fill:#e0e0e0"
       id="path157" />
    <path
       d="m 351.12,246.67 c -0.15,0 -0.26,-45.45 -0.26,-101.5 0,-56.05 0.11,-101.51 0.26,-101.51 0.15,0 0.26,45.44 0.26,101.51 0,56.07 -0.12,101.5 -0.26,101.5 z"
       style="fill:#e0e0e0"
       id="path159" />
    <path
       d="m 404.21,76.19 c 0,0.14 -70,0.26 -156.37,0.26 -86.37,0 -156.37,-0.12 -156.37,-0.26 0,-0.14 70,-0.26 156.37,-0.26 86.37,0 156.37,0.12 156.37,0.26 z"
       style="fill:#e0e0e0"
       id="path161" />
    <path
       d="m 404.21,111 c 0,0.15 -70,0.26 -156.37,0.26 -86.37,0 -156.37,-0.11 -156.37,-0.26 0,-0.15 70,-0.26 156.37,-0.26 86.37,0 156.37,0.12 156.37,0.26 z"
       style="fill:#e0e0e0"
       id="path163" />
    <path
       d="m 404.21,145.82 c 0,0.14 -70,0.26 -156.37,0.26 -86.37,0 -156.37,-0.08 -156.37,-0.26 0,-0.18 70,-0.26 156.37,-0.26 86.37,0 156.37,0.11 156.37,0.26 z"
       style="fill:#e0e0e0"
       id="path165" />
    <path
       d="m 404.21,180.63 c 0,0.14 -70,0.26 -156.37,0.26 -86.37,0 -156.37,-0.12 -156.37,-0.26 0,-0.14 70,-0.26 156.37,-0.26 86.37,0 156.37,0.12 156.37,0.26 z"
       style="fill:#e0e0e0"
       id="path167" />
    <path
       d="m 404.21,215.44 c 0,0.15 -70,0.26 -156.37,0.26 -86.37,0 -156.37,-0.11 -156.37,-0.26 0,-0.15 70,-0.26 156.37,-0.26 86.37,0 156.37,0.12 156.37,0.26 z"
       style="fill:#e0e0e0"
       id="path169" />
    <path
       d="M 367.33,232.41 A 26,26 0 0 1 364.7,229 c -1.65,-2.3 -4.06,-5.71 -7.15,-10.14 -6.17,-8.84 -15.05,-21.72 -26.05,-37.76 h 1.5 l -23.18,33.59 a 1.09,1.09 0 0 1 -1.51,0.27 1,1 0 0 1 -0.34,-0.38 v 0 l -53.48,-102.3 2.15,0.24 -5.64,6.78 -25,29.7 a 1.27,1.27 0 0 1 -2.17,-0.35 c -10.37,-26 -20.06,-50.33 -28.71,-72 l 1.91,0.27 -27.77,34.7 v 0 a 0.92,0.92 0 0 1 -1.29,0.15 1.13,1.13 0 0 1 -0.24,-0.3 c -9.55,-18.32 -17.24,-33.17 -22.5,-43.46 -2.63,-5.15 -4.65,-9.15 -6,-11.88 q -1,-2.06 -1.5,-3.12 a 4.19,4.19 0 0 1 -0.43,-1.11 4.19,4.19 0 0 1 0.67,1 c 0.4,0.67 1,1.68 1.73,3 1.5,2.65 3.66,6.58 6.43,11.65 5.54,10.15 13.47,24.87 23.23,43.08 l -1.54,-0.14 27.47,-34.94 a 1.12,1.12 0 0 1 1.57,-0.18 1.15,1.15 0 0 1 0.34,0.45 v 0 c 8.75,21.68 18.54,46 29,71.93 l -2.18,-0.35 24.98,-29.78 5.68,-6.77 a 1.3,1.3 0 0 1 1.83,-0.17 1.71,1.71 0 0 1 0.32,0.4 c 19.61,37.88 37.83,73.06 53.07,102.48 l -1.86,-0.12 23.49,-33.36 v 0 a 0.88,0.88 0 0 1 1.24,-0.21 0.84,0.84 0 0 1 0.23,0.23 c 10.81,16.17 19.46,29.2 25.39,38.22 3,4.5 5.23,8 6.75,10.39 a 28.89,28.89 0 0 1 2.19,3.7 z"
       style="fill:#61dafb"
       id="path171" />
    <path
       d="m 368.69,207.13 c 0.7,0 0.67,11.31 -0.06,25.35 a 1.3,1.3 0 0 1 -1.37,1.23 1.17,1.17 0 0 1 -0.27,0 l -0.78,-0.21 c -13.94,-3.76 -25.08,-7.37 -24.89,-8.06 0.19,-0.69 11.68,1.75 25.57,5.56 l 0.77,0.21 -1.66,1.13 c 0.8,-14.04 2,-25.25 2.69,-25.21 z"
       style="fill:#61dafb"
       id="path173" />
  </g>
  <g
     transform="translate(7.5478039,-2.626971)"
     id="Plant--inject-10">
    <rect
       x="364.92001"
       y="411.92999"
       width="70.809998"
       height="9.7299995"
       style="fill:#263238"
       id="rect176" />
    <path
       d="M 435.85,421.78 H 364.8 v -10 h 71.05 z M 365,421.53 h 70.57 v -9.48 H 365 Z"
       style="fill:#263238"
       id="path178" />
    <polygon
       points="381.68,468.7 419.39,468.7 429.24,421.65 371.49,418.42 "
       style="fill:#263238"
       id="polygon180" />
    <polygon
       points="376.92,471.42 422.76,471.42 429.24,463.94 371.49,463.94 "
       style="fill:#455a64"
       id="polygon182" />
    <path
       d="m 397.66,419.89 c -0.13,0 -0.31,-23.3 -0.39,-52 -0.08,-28.7 0,-52 0.1,-52 0.1,0 0.32,23.29 0.4,52 0.08,28.71 0.03,52 -0.11,52 z"
       style="fill:#263238"
       id="path184" />
    <path
       d="m 413.44,361.59 a 2.66,2.66 0 0 1 -0.19,0.54 c -0.17,0.4 -0.38,0.9 -0.63,1.51 -0.15,0.33 -0.3,0.7 -0.47,1.09 -0.17,0.39 -0.3,0.85 -0.47,1.32 l -0.54,1.52 c -0.19,0.53 -0.34,1.12 -0.53,1.73 a 70.52,70.52 0 0 0 -2,8.66 106.1,106.1 0 0 0 -1.09,10.85 144.75,144.75 0 0 0 0.56,19.8 c 0.22,2.53 0.45,4.57 0.62,6 0.07,0.66 0.13,1.2 0.18,1.63 a 2.05,2.05 0 0 1 0,0.57 2.42,2.42 0 0 1 -0.13,-0.56 l -0.27,-1.61 c -0.23,-1.41 -0.52,-3.45 -0.79,-6 a 131.06,131.06 0 0 1 -0.71,-19.87 100.75,100.75 0 0 1 1.14,-10.89 66,66 0 0 1 2.1,-8.7 c 0.2,-0.61 0.36,-1.19 0.56,-1.73 0.2,-0.54 0.4,-1 0.59,-1.51 0.19,-0.51 0.35,-0.91 0.51,-1.31 0.16,-0.4 0.35,-0.76 0.51,-1.08 l 0.72,-1.47 a 2.39,2.39 0 0 1 0.33,-0.49 z"
       style="fill:#263238"
       id="path186" />
    <path
       d="m 411.63,342.75 a 5.11,5.11 0 0 1 -0.23,0.77 c -0.18,0.54 -0.43,1.26 -0.73,2.17 -0.17,0.47 -0.35,1 -0.55,1.56 -0.2,0.56 -0.36,1.21 -0.57,1.88 -0.41,1.35 -0.89,2.88 -1.32,4.6 -0.22,0.86 -0.46,1.76 -0.71,2.69 -0.25,0.93 -0.43,1.93 -0.66,2.95 -0.5,2 -0.85,4.23 -1.31,6.53 -0.78,4.63 -1.47,9.74 -1.94,15.14 -0.47,5.4 -0.64,10.55 -0.71,15.25 -0.07,4.7 0,8.92 0.24,12.47 0.06,1.77 0.17,3.37 0.26,4.78 0.09,1.41 0.17,2.62 0.26,3.61 0.09,0.99 0.13,1.72 0.18,2.28 a 4.38,4.38 0 0 1 0,0.8 5.66,5.66 0 0 1 -0.12,-0.79 c -0.07,-0.56 -0.16,-1.32 -0.27,-2.27 -0.11,-0.95 -0.24,-2.2 -0.35,-3.61 -0.11,-1.41 -0.25,-3 -0.34,-4.78 -0.24,-3.55 -0.33,-7.79 -0.35,-12.5 -0.02,-4.71 0.23,-9.87 0.68,-15.29 0.45,-5.42 1.18,-10.54 2,-15.17 0.47,-2.31 0.85,-4.51 1.36,-6.54 0.24,-1 0.47,-2 0.7,-2.95 0.23,-0.95 0.5,-1.83 0.74,-2.69 0.45,-1.73 0.95,-3.25 1.4,-4.6 0.21,-0.67 0.42,-1.29 0.61,-1.87 0.19,-0.58 0.4,-1.08 0.58,-1.55 0.35,-0.89 0.62,-1.6 0.83,-2.14 a 4.43,4.43 0 0 1 0.32,-0.73 z"
       style="fill:#263238"
       id="path188" />
    <path
       d="m 393.19,424 a 0.82,0.82 0 0 1 0,-0.28 c 0,-0.21 0,-0.47 -0.07,-0.8 l -0.21,-3.08 c -0.17,-2.72 -0.41,-6.59 -0.71,-11.35 -0.61,-9.58 -1.5,-22.81 -3.11,-37.36 -0.83,-7.28 -1.78,-14.19 -2.78,-20.46 -0.52,-3.12 -1,-6.1 -1.55,-8.87 -0.55,-2.77 -1,-5.35 -1.52,-7.69 -0.52,-2.34 -1,-4.46 -1.41,-6.32 -0.41,-1.86 -0.8,-3.46 -1.13,-4.76 -0.33,-1.3 -0.56,-2.28 -0.74,-3 q -0.1,-0.48 -0.18,-0.78 a 0.83,0.83 0 0 1 0,-0.28 1.1,1.1 0 0 1 0.09,0.26 l 0.23,0.77 c 0.2,0.72 0.47,1.72 0.83,3 0.36,1.28 0.78,2.88 1.22,4.74 0.44,1.86 1,4 1.47,6.31 0.47,2.31 1.08,4.92 1.6,7.7 0.52,2.78 1.05,5.74 1.59,8.87 1,6.27 2,13.19 2.82,20.47 1.61,14.57 2.44,27.81 3,37.4 0.26,4.79 0.44,8.67 0.55,11.36 0.05,1.31 0.08,2.34 0.11,3.09 0,0.33 0,0.59 0,0.8 0,0.21 -0.1,0.26 -0.1,0.26 z"
       style="fill:#263238"
       id="path190" />
    <path
       d="m 397.09,327 c -0.31,-3.3 -3.65,-5.79 -7,-5.82 -3.35,-0.03 -6.4,2 -8.43,4.57 a 26.53,26.53 0 0 0 -4.06,9 c -2.23,7.78 -3.45,15.95 -2.5,24 0.95,8.05 4.22,15.94 10,21.62 0.94,0.92 2.15,1.84 3.44,1.57 a 4.15,4.15 0 0 0 1.81,-1.12 53.66,53.66 0 0 0 17.43,-40.82 c -0.09,-3.06 -0.49,-6.24 -2.18,-8.78 -1.69,-2.54 -5.6,-5.22 -8.51,-4.22"
       style="fill:#61dafb"
       id="path192" />
    <path
       d="m 372.34,300.6 q -2.34,4.23 -4.67,8.45 c -0.11,0.2 -0.25,0.42 -0.48,0.44 -0.23,0.02 -0.42,-0.21 -0.56,-0.42 q -6.17,-9.46 -12.34,-18.94 l 2.84,-1.61 z"
       style="fill:#61dafb"
       id="path194" />
    <g
       style="opacity:0.2"
       id="g198">
      <path
         d="m 372.34,300.6 q -2.34,4.23 -4.67,8.45 c -0.11,0.2 -0.25,0.42 -0.48,0.44 -0.23,0.02 -0.42,-0.21 -0.56,-0.42 q -6.17,-9.46 -12.34,-18.94 l 2.84,-1.61 z"
         id="path196" />
    </g>
    <path
       d="M 397.37,315.83 355.27,291 a 2,2 0 0 1 -1,-1 c -0.17,-0.62 0.3,-1.23 0.75,-1.69 a 29.05,29.05 0 0 1 22.5,-8.84 25.7,25.7 0 0 1 20.33,12.65 c 4.07,7.26 4.2,16.86 -0.46,23.75"
       style="fill:#61dafb"
       id="path200" />
    <path
       d="m 361.34,283.06 a 3.06,3.06 0 0 1 0.55,-0.07 c 0.37,0 0.9,-0.08 1.59,-0.07 a 30.86,30.86 0 0 1 5.85,0.46 34.11,34.11 0 0 1 27.24,24.62 32.07,32.07 0 0 1 1.05,5.76 c 0.07,0.69 0,0.87 0.06,1.23 a 2.18,2.18 0 0 1 -0.32,0.92 7.39,7.39 0 0 0 0.06,-2.13 34.59,34.59 0 0 0 -28.16,-30.09 36,36 0 0 0 -5.78,-0.62 c -1.37,0.01 -2.14,0.04 -2.14,-0.01 z"
       style="fill:#263238"
       id="path202" />
    <path
       d="m 391.67,298.69 a 10,10 0 0 1 -2.12,1 c -1.35,0.52 -3.22,1.2 -5.32,1.87 -2.1,0.67 -4,1.19 -5.41,1.53 a 9.54,9.54 0 0 1 -2.3,0.44 11.48,11.48 0 0 1 2.2,-0.78 l 5.36,-1.68 5.35,-1.72 a 11.14,11.14 0 0 1 2.24,-0.66 z"
       style="fill:#263238"
       id="path204" />
    <path
       d="m 385.05,280.88 a 18.19,18.19 0 0 1 0.49,4.7 17.45,17.45 0 0 1 -0.26,4.71 30.41,30.41 0 0 1 -0.24,-4.7 28.58,28.58 0 0 1 0.01,-4.71 z"
       style="fill:#263238"
       id="path206" />
    <path
       d="m 354.91,290.52 a 18.51,18.51 0 0 1 3,-1.07 c 1.92,-0.59 4.58,-1.34 7.55,-2.06 2.97,-0.72 5.68,-1.26 7.65,-1.61 a 18.77,18.77 0 0 1 3.22,-0.43 22.79,22.79 0 0 1 -3.15,0.78 c -2,0.44 -4.64,1 -7.6,1.75 -2.96,0.75 -5.63,1.41 -7.57,1.91 a 22.14,22.14 0 0 1 -3.1,0.73 z"
       style="fill:#263238"
       id="path208" />
    <path
       d="m 379.61,319.87 c -3.62,-2.74 -7.44,-3.28 -12,-3.1 a 36.78,36.78 0 0 0 -13.13,3.38 c -7.1,3.11 -13.77,7.69 -18,14.18 -4.23,6.49 -5.72,15.07 -2.54,22.14 a 3.19,3.19 0 0 0 1.44,1.75 3.38,3.38 0 0 0 2.37,-0.19 c 8.08,-2.63 16.21,-5.29 23.63,-9.41 7.42,-4.12 14.18,-9.86 18.16,-17.36 a 14.93,14.93 0 0 0 1.92,-5.76 7.2,7.2 0 0 0 -1.86,-5.63"
       style="fill:#61dafb"
       id="path210" />
    <path
       d="m 379.69,319 a 3,3 0 0 1 -0.58,0.24 l -1.7,0.58 -1.22,0.41 c -0.45,0.16 -0.92,0.36 -1.43,0.55 -1,0.42 -2.21,0.83 -3.46,1.44 l -2,0.9 c -0.68,0.31 -1.37,0.7 -2.1,1.07 -1.46,0.72 -2.94,1.64 -4.52,2.57 a 71.41,71.41 0 0 0 -17.81,15.67 c -1.12,1.45 -2.22,2.8 -3.12,4.16 -0.46,0.67 -0.93,1.3 -1.34,1.94 l -1.14,1.85 c -0.76,1.16 -1.32,2.29 -1.86,3.25 -0.27,0.48 -0.52,0.93 -0.74,1.35 l -0.56,1.16 c -0.32,0.66 -0.59,1.19 -0.79,1.6 a 3,3 0 0 1 -0.31,0.55 2.57,2.57 0 0 1 0.22,-0.59 l 0.7,-1.65 0.53,-1.18 c 0.2,-0.43 0.45,-0.88 0.7,-1.37 0.52,-1 1.06,-2.12 1.8,-3.3 l 1.13,-1.88 c 0.39,-0.65 0.86,-1.29 1.32,-2 0.89,-1.38 2,-2.75 3.1,-4.21 a 68.93,68.93 0 0 1 17.93,-15.77 c 1.59,-0.93 3.09,-1.84 4.57,-2.55 0.74,-0.36 1.43,-0.74 2.12,-1 l 2,-0.88 c 1.26,-0.59 2.46,-1 3.5,-1.37 0.52,-0.19 1,-0.37 1.45,-0.52 l 1.24,-0.37 1.73,-0.49 a 2.43,2.43 0 0 1 0.64,-0.16 z"
       style="fill:#263238"
       id="path212" />
    <path
       d="m 351.4,334.34 a 85.69,85.69 0 0 1 -8.81,2.83 85,85 0 0 1 -8.95,2.36 82.36,82.36 0 0 1 8.81,-2.84 83.33,83.33 0 0 1 8.95,-2.35 z"
       style="fill:#263238"
       id="path214" />
    <path
       d="m 351,353.77 a 13.92,13.92 0 0 1 -0.2,-2.74 c 0,-1.7 0,-4 0,-6.63 0,-2.63 0.21,-4.93 0.35,-6.63 a 14.34,14.34 0 0 1 0.35,-2.72 15.63,15.63 0 0 1 0,2.74 c -0.06,1.86 -0.13,4.12 -0.2,6.62 -0.07,2.5 -0.12,4.76 -0.17,6.62 a 15.44,15.44 0 0 1 -0.13,2.74 z"
       style="fill:#263238"
       id="path216" />
    <path
       d="m 367.69,345.29 c -0.14,0 -0.58,-4.76 -1,-10.64 -0.42,-5.88 -0.63,-10.67 -0.49,-10.68 0.14,-0.01 0.58,4.75 1,10.64 0.42,5.89 0.63,10.67 0.49,10.68 z"
       style="fill:#263238"
       id="path218" />
    <path
       d="m 347,323.51 a 15.7,15.7 0 0 1 2.83,-0.09 c 1.74,0 4.14,0.06 6.79,0.15 2.65,0.09 5.06,0.2 6.79,0.3 a 15.56,15.56 0 0 1 2.82,0.27 15.54,15.54 0 0 1 -2.82,0.09 c -1.74,0 -4.15,-0.07 -6.8,-0.15 -2.65,-0.08 -5.06,-0.2 -6.8,-0.3 A 16.56,16.56 0 0 1 347,323.51 Z"
       style="fill:#263238"
       id="path220" />
    <path
       d="m 386.93,381.49 a 2.05,2.05 0 0 1 -0.06,-0.56 c 0,-0.43 -0.05,-1 -0.08,-1.62 -0.06,-1.41 -0.08,-3.45 0,-6 0.08,-2.55 0.21,-5.52 0.52,-8.83 0.31,-3.31 0.8,-6.95 1.48,-10.74 0.68,-3.79 1.53,-7.35 2.39,-10.58 0.86,-3.23 1.79,-6.08 2.63,-8.46 0.84,-2.38 1.57,-4.29 2.13,-5.59 l 0.64,-1.49 a 2.87,2.87 0 0 1 0.25,-0.51 2.27,2.27 0 0 1 -0.16,0.55 c -0.14,0.39 -0.33,0.9 -0.55,1.52 -0.5,1.32 -1.18,3.24 -2,5.63 -0.82,2.39 -1.66,5.26 -2.52,8.47 -0.86,3.21 -1.65,6.78 -2.34,10.55 -0.69,3.77 -1.17,7.39 -1.52,10.69 -0.35,3.3 -0.53,6.29 -0.63,8.8 -0.1,2.51 -0.14,4.54 -0.13,5.95 0,0.66 0,1.19 0,1.62 a 3,3 0 0 1 -0.05,0.6 z"
       style="fill:#263238"
       id="path222" />
    <path
       d="m 389.15,353.93 a 11.72,11.72 0 0 1 -1.68,1.84 c -1.09,1.09 -2.64,2.55 -4.4,4.09 -1.76,1.54 -3.42,2.89 -4.64,3.83 a 10.68,10.68 0 0 1 -2,1.42 13.08,13.08 0 0 1 1.82,-1.7 c 1.29,-1.12 2.83,-2.45 4.52,-3.93 1.69,-1.48 3.21,-2.83 4.49,-4 a 13.32,13.32 0 0 1 1.89,-1.55 z"
       style="fill:#263238"
       id="path224" />
    <path
       d="m 402.47,364.66 a 19.85,19.85 0 0 1 -1.79,-2.47 l -4.16,-6.08 c -1.61,-2.28 -3.07,-4.34 -4.24,-6 a 17.47,17.47 0 0 1 -1.7,-2.54 18.78,18.78 0 0 1 2,2.33 c 1.17,1.48 2.73,3.57 4.38,5.94 1.65,2.37 3.06,4.55 4,6.16 a 16.69,16.69 0 0 1 1.51,2.66 z"
       style="fill:#263238"
       id="path226" />
    <path
       d="m 395.49,330.91 c 0.08,0.11 -4.35,3.09 -9.88,6.65 -5.53,3.56 -10.09,6.35 -10.16,6.23 -0.07,-0.12 4.35,-3.09 9.88,-6.65 5.53,-3.56 10.09,-6.35 10.16,-6.23 z"
       style="fill:#263238"
       id="path228" />
    <path
       d="m 408,344.38 a 82,82 0 0 1 -6.69,-6.19 85.66,85.66 0 0 1 -6.35,-6.55 81.1,81.1 0 0 1 6.7,6.19 82.06,82.06 0 0 1 6.34,6.55 z"
       style="fill:#263238"
       id="path230" />
    <path
       d="m 411.11,344.11 3.8,-0.32 a 18.65,18.65 0 0 0 7.67,-2.35 30.65,30.65 0 0 1 3.58,-1.79 c 4.7,-1.89 9.94,-1.55 15,-1.81 a 62,62 0 0 0 23.85,-6.1 2.26,2.26 0 0 0 1,-0.94 c 0.78,-1.42 -0.67,-2.69 -1.92,-3.45 -6.4,-4 -12.92,-7.94 -20.17,-9.9 -7.25,-1.96 -15.51,-1.63 -21.7,2.63 -7.27,5 -9.92,15.29 -11.15,24"
       style="fill:#61dafb"
       id="path232" />
    <path
       d="m 466.13,330.33 a 3.16,3.16 0 0 1 -0.64,-0.3 l -1.8,-0.94 c -1.56,-0.82 -3.81,-2 -6.65,-3.39 a 62.28,62.28 0 0 0 -10.3,-4 34,34 0 0 0 -13.35,-1.08 22.8,22.8 0 0 0 -12.16,5.22 27.06,27.06 0 0 0 -6.34,8.9 c -1.33,2.85 -2.15,5.27 -2.75,6.93 l -0.68,1.91 a 3.15,3.15 0 0 1 -0.27,0.66 6.86,6.86 0 0 1 0.17,-0.69 c 0.15,-0.49 0.35,-1.14 0.59,-1.95 a 63.54,63.54 0 0 1 2.62,-7 26.91,26.91 0 0 1 6.35,-9.1 23,23 0 0 1 12.41,-5.37 33.85,33.85 0 0 1 13.53,1.13 59.4,59.4 0 0 1 10.33,4.09 c 2.84,1.41 5.06,2.67 6.59,3.55 l 1.76,1 a 4.3,4.3 0 0 1 0.59,0.43 z"
       style="fill:#263238"
       id="path234" />
    <path
       d="m 457,335.24 c -0.08,0.11 -5.05,-3.1 -11.1,-7.18 -6.05,-4.08 -10.89,-7.49 -10.82,-7.6 0.07,-0.11 5.05,3.1 11.1,7.18 6.05,4.08 10.91,7.48 10.82,7.6 z"
       style="fill:#263238"
       id="path236" />
    <path
       d="m 451.71,320.2 a 19.3,19.3 0 0 1 -7.31,0.6 24.44,24.44 0 0 1 3.65,-0.37 22.66,22.66 0 0 1 3.66,-0.23 z"
       style="fill:#263238"
       id="path238" />
    <path
       d="m 430,317.36 a 9.52,9.52 0 0 1 -1.63,2.55 11.23,11.23 0 0 1 -2.06,2.35 9.52,9.52 0 0 1 1.63,-2.55 11.23,11.23 0 0 1 2.06,-2.35 z"
       style="fill:#263238"
       id="path240" />
    <path
       d="m 434.41,338.16 a 12.51,12.51 0 0 1 -2.4,-1.29 c -1.43,-0.87 -3.37,-2.15 -5.44,-3.65 -2.07,-1.5 -3.9,-2.93 -5.22,-4 a 14.26,14.26 0 0 1 -2.06,-1.77 15.47,15.47 0 0 1 2.28,1.49 l 5.29,3.85 c 2.07,1.5 4,2.81 5.35,3.76 a 17.25,17.25 0 0 1 2.2,1.61 z"
       style="fill:#263238"
       id="path242" />
    <path
       d="m 416.71,360.25 c -3.63,-1 -7.95,2.57 -8.7,6.24 -0.75,3.67 0.63,7.43 2.25,10.82 a 55.25,55.25 0 0 0 15,19.61 c 6.48,5.17 14.61,8.47 22.91,8.43 -1.53,-7.11 0.41,-14.55 -0.45,-21.78 a 28.32,28.32 0 0 0 -25.09,-24.84 c -2.31,-0.25 -5,-0.62 -5.91,1.52"
       style="fill:#61dafb"
       id="path244" />
    <path
       d="m 448.16,405.35 a 2.26,2.26 0 0 1 -0.51,-0.24 9,9 0 0 1 -1.36,-0.91 14.15,14.15 0 0 1 -3.58,-4.78 c -0.58,-1.13 -1.22,-2.34 -1.85,-3.69 -0.63,-1.35 -1.27,-2.8 -1.95,-4.31 a 40.7,40.7 0 0 0 -2.4,-4.61 35.76,35.76 0 0 0 -3.3,-4.48 c -2.48,-2.92 -5.14,-5.44 -7.45,-7.85 a 51,51 0 0 1 -5.68,-6.82 25,25 0 0 1 -2.78,-5.3 c -0.23,-0.67 -0.4,-1.19 -0.48,-1.55 a 2.15,2.15 0 0 1 -0.11,-0.56 c 0,0 0.25,0.74 0.78,2 a 27.57,27.57 0 0 0 2.88,5.17 55.13,55.13 0 0 0 5.73,6.7 c 2.31,2.38 5,4.89 7.5,7.84 a 35.94,35.94 0 0 1 3.33,4.55 39.85,39.85 0 0 1 2.4,4.67 q 1,2.29 1.91,4.33 c 0.6,1.34 1.23,2.58 1.79,3.7 a 14.46,14.46 0 0 0 3.39,4.8 c 1.06,0.99 1.77,1.29 1.74,1.34 z"
       style="fill:#263238"
       id="path246" />
    <path
       d="m 429.42,399.44 a 10.76,10.76 0 0 1 0.33,-2.44 c 0.29,-1.49 0.75,-3.54 1.38,-5.78 0.63,-2.24 1.3,-4.22 1.84,-5.64 a 11,11 0 0 1 1,-2.25 14,14 0 0 1 -0.65,2.37 c -0.45,1.44 -1.07,3.44 -1.69,5.66 -0.62,2.22 -1.15,4.25 -1.52,5.72 a 13.44,13.44 0 0 1 -0.69,2.36 z"
       style="fill:#263238"
       id="path248" />
    <path
       d="m 447.47,382 a 15,15 0 0 1 -2.55,-0.59 c -1.56,-0.41 -3.72,-1 -6.12,-1.5 -2.4,-0.5 -4.58,-1 -6.17,-1.27 a 15.4,15.4 0 0 1 -2.56,-0.56 12,12 0 0 1 2.62,0.21 c 1.6,0.21 3.81,0.58 6.23,1.12 2.42,0.54 4.56,1.16 6.1,1.66 a 12.7,12.7 0 0 1 2.45,0.93 z"
       style="fill:#263238"
       id="path250" />
    <path
       d="m 416,387 a 14.13,14.13 0 0 1 0.39,-2.82 c 0.32,-1.73 0.83,-4.11 1.51,-6.71 0.68,-2.6 1.4,-4.92 2,-6.58 a 15.27,15.27 0 0 1 1,-2.66 17.38,17.38 0 0 1 -0.7,2.76 c -0.48,1.69 -1.14,4 -1.82,6.61 -0.68,2.61 -1.23,4.95 -1.64,6.66 A 17.6,17.6 0 0 1 416,387 Z"
       style="fill:#263238"
       id="path252" />
    <path
       d="m 439.16,366.75 c 0,0.13 -4.54,-0.23 -10.1,-0.82 -5.56,-0.59 -10.06,-1.18 -10.06,-1.32 0,-0.14 4.54,0.23 10.11,0.82 5.57,0.59 10.06,1.18 10.05,1.32 z"
       style="fill:#263238"
       id="path254" />
    <path
       d="m 435.85,421.61 c 0,0.14 -15.91,0.26 -35.52,0.26 -19.61,0 -35.53,-0.12 -35.53,-0.26 0,-0.14 15.9,-0.25 35.53,-0.25 19.63,0 35.52,0.12 35.52,0.25 z"
       style="fill:#455a64"
       id="path256" />
    <path
       d="m 424.78,442.08 c 0,0.14 -10.72,0.25 -23.93,0.25 -13.21,0 -23.94,-0.11 -23.94,-0.25 0,-0.14 10.72,-0.25 23.94,-0.25 13.22,0 23.93,0.11 23.93,0.25 z"
       style="fill:#455a64"
       id="path258" />
    <path
       d="m 424.36,445 c 0,0.14 -10.53,0.25 -23.51,0.25 -12.98,0 -23.52,-0.11 -23.52,-0.25 0,-0.14 10.53,-0.25 23.52,-0.25 12.99,0 23.51,0.12 23.51,0.25 z"
       style="fill:#455a64"
       id="path260" />
    <path
       d="m 425.2,439.67 c 0,0.14 -11.09,0.25 -24.76,0.25 -13.67,0 -24.75,-0.11 -24.75,-0.25 0,-0.14 11.08,-0.25 24.75,-0.25 13.67,0 24.76,0.11 24.76,0.25 z"
       style="fill:#455a64"
       id="path262" />
  </g>
  <g
     transform="translate(7.5478039,-2.626971)"
     id="Floor--inject-10">
    <path
       d="m 468.67,471.42 c 0,0.14 -97.25,0.26 -217.19,0.26 -119.94,0 -217.21,-0.12 -217.21,-0.26 0,-0.14 97.23,-0.26 217.21,-0.26 119.98,0 217.19,0.11 217.19,0.26 z"
       style="fill:#263238"
       id="path265" />
  </g>
  <g
     transform="translate(7.5478039,-2.626971)"
     id="Character--inject-10">
    <polygon
       points="223.59,471.09 229.73,471.09 229.73,361.4 221.81,361.4 "
       style="fill:#e0e0e0"
       id="polygon268" />
    <polygon
       points="298.53,471.12 304.5,471.15 304.5,359.22 298.53,359.22 "
       style="fill:#e0e0e0"
       id="polygon270" />
    <rect
       x="223.67"
       y="382.09"
       width="75.629997"
       height="6.6599998"
       style="fill:#e0e0e0"
       id="rect272" />
    <rect
       ry="3.75"
       x="205.97"
       y="343.56"
       width="114.06"
       height="18.860001"
       rx="3.75"
       style="fill:#455a64"
       id="rect274" />
    <path
       d="m 166.31,244.94 0.59,-30 9.32,-20.94 c 0,0 1.23,-2.21 2.19,-1.08 0.96,1.13 -0.21,2.51 -0.21,2.51 0,0 2.14,-0.43 1.8,1.57 -0.34,2 -1,4.71 -1,4.71 0,0 0.43,2.4 -1.81,6.63 -2.24,4.23 -2.41,6.11 -2.41,6.11 0,0 2.83,4 5.07,4.92 a 5,5 0 0 0 5.79,-1.28 30.45,30.45 0 0 1 5.55,-3.54 L 194,218 c 0,0 -4.31,4.69 -5.12,6.31 -0.81,1.62 -3.2,7.73 -5.69,9.84 -2.49,2.11 -3.09,9.34 -3.09,9.34 0,0 -1.25,7.51 -13.79,1.45 z"
       style="fill:#ffbe9d"
       id="path276" />
    <path
       d="m 169.16,216.5 a 20.54,20.54 0 0 1 1,-3 c 0.69,-1.82 1.67,-4.31 2.79,-7.06 l 1.6,-3.87 a 5.72,5.72 0 0 1 1,-1.61 2.83,2.83 0 0 1 1.46,-0.85 1.74,1.74 0 0 1 1.38,0.26 1.65,1.65 0 0 1 0.62,0.84 c 0.16,0.59 -0.09,0.89 -0.1,0.86 a 1.77,1.77 0 0 0 -0.09,-0.79 1.45,1.45 0 0 0 -1.73,-0.81 2.48,2.48 0 0 0 -1.22,0.78 5.25,5.25 0 0 0 -0.87,1.51 c -0.48,1.21 -1,2.51 -1.56,3.88 -1.12,2.74 -2.15,5.22 -2.93,7 a 18.43,18.43 0 0 1 -1.35,2.86 z"
       style="fill:#eb996e"
       id="path278" />
    <path
       d="m 177.18,195.71 c 0.07,0.06 -0.74,1 -1.7,2.64 a 43.59,43.59 0 0 0 -3,6.94 39.79,39.79 0 0 1 -3.06,7 13.27,13.27 0 0 1 -1.34,1.9 c -0.35,0.42 -0.56,0.63 -0.59,0.61 -0.03,-0.02 0.69,-1 1.61,-2.7 a 51.24,51.24 0 0 0 2.89,-7 34.89,34.89 0 0 1 3.16,-7 11.24,11.24 0 0 1 0.76,-1.09 7.23,7.23 0 0 1 0.64,-0.77 c 0.38,-0.35 0.6,-0.56 0.63,-0.53 z"
       style="fill:#eb996e"
       id="path280" />
    <path
       d="m 178.09,229.88 a 3.7,3.7 0 0 1 -0.49,-1.69 8,8 0 0 1 3.36,-7.48 3.55,3.55 0 0 1 1.6,-0.76 c 0,0.08 -0.56,0.38 -1.37,1.05 a 8.66,8.66 0 0 0 -3.22,7.16 c 0.03,1.05 0.2,1.69 0.12,1.72 z"
       style="fill:#eb996e"
       id="path282" />
    <path
       d="m 177.18,235.34 a 2.52,2.52 0 0 0 0,-0.78 14.58,14.58 0 0 0 -0.57,-2.09 c -0.56,-1.76 -1.48,-4.15 -2.33,-6.86 a 20.09,20.09 0 0 1 -0.9,-3.93 4.53,4.53 0 0 1 0.22,-1.8 q 0.24,-0.75 0.45,-1.44 a 4.93,4.93 0 0 0 0.21,-2.11 c -0.08,-0.49 -0.23,-0.75 -0.19,-0.77 a 1.38,1.38 0 0 1 0.38,0.73 4.48,4.48 0 0 1 0,2.24 c -0.11,0.46 -0.26,0.95 -0.39,1.47 a 3.9,3.9 0 0 0 -0.16,1.64 22.06,22.06 0 0 0 0.91,3.82 c 0.85,2.68 1.72,5.1 2.2,6.9 a 10.92,10.92 0 0 1 0.41,2.18 c 0,0.54 -0.21,0.83 -0.24,0.8 z"
       style="fill:#eb996e"
       id="path284" />
    <path
       d="m 159.92,430.25 1.83,27.56 c 0,0 -27.44,9.11 -27.6,14.23 l 53.61,0.39 -1.08,-43.07 z"
       style="fill:#61dafb"
       id="path286" />
    <g
       style="opacity:0.6"
       id="g290">
      <path
         d="m 178.24,455 a 2.19,2.19 0 0 1 1.59,2.45 2.1,2.1 0 0 1 -2.41,1.6 2.31,2.31 0 0 1 -1.67,-2.61 2.18,2.18 0 0 1 2.69,-1.38"
         style="fill:#ffffff"
         id="path288" />
    </g>
    <g
       style="opacity:0.6"
       id="g294">
      <path
         d="m 187.76,472.43 -0.11,-4.34 -51.78,1.43 a 3.69,3.69 0 0 0 -2,2.91 z"
         style="fill:#ffffff"
         id="path292" />
    </g>
    <path
       d="m 160.87,457.57 c 0,0.26 1.33,0.34 2.64,1.14 1.31,0.8 2,1.88 2.27,1.77 0.27,-0.11 -0.2,-1.61 -1.8,-2.55 -1.6,-0.94 -3.17,-0.6 -3.11,-0.36 z"
       style="fill:#263238"
       id="path296" />
    <path
       d="m 155.32,460.06 c 0,0.26 1.1,0.67 2,1.75 0.9,1.08 1.21,2.24 1.47,2.22 0.26,-0.02 0.38,-1.51 -0.79,-2.83 -1.17,-1.32 -2.68,-1.39 -2.68,-1.14 z"
       style="fill:#263238"
       id="path298" />
    <path
       d="m 152.33,466.88 c 0.24,0.05 0.57,-1.27 -0.15,-2.68 -0.72,-1.41 -2,-1.94 -2.06,-1.72 -0.06,0.22 0.68,1 1.25,2.13 0.57,1.13 0.7,2.25 0.96,2.27 z"
       style="fill:#263238"
       id="path300" />
    <path
       d="m 161.15,451.24 c 0.12,0.23 1.31,-0.16 2.79,-0.11 1.48,0.05 2.65,0.49 2.78,0.26 0.13,-0.23 -1,-1.13 -2.76,-1.17 -1.76,-0.04 -2.96,0.78 -2.81,1.02 z"
       style="fill:#263238"
       id="path302" />
    <g
       style="opacity:0.3"
       id="g306">
      <polygon
         points="160.61,440.62 186.93,439.58 186.83,435.15 160.29,435.71 "
         id="polygon304" />
    </g>
    <path
       d="m 160.89,445.67 a 5,5 0 0 0 2.68,-0.09 12.22,12.22 0 0 0 2.78,-0.95 12.5,12.5 0 0 0 1.52,-0.87 3.15,3.15 0 0 0 0.79,-0.65 1.16,1.16 0 0 0 0.08,-1.4 1.46,1.46 0 0 0 -1.17,-0.56 3.59,3.59 0 0 0 -1,0.17 9.73,9.73 0 0 0 -1.65,0.62 9.5,9.5 0 0 0 -2.43,1.7 c -1.21,1.19 -1.6,2.18 -1.51,2.23 0.09,0.05 0.7,-0.76 1.94,-1.75 a 10.12,10.12 0 0 1 3.88,-1.94 c 0.56,-0.16 1,-0.18 1.2,0.06 0.2,0.24 0.06,0.14 -0.05,0.31 a 3.18,3.18 0 0 1 -0.59,0.48 14.82,14.82 0 0 1 -1.39,0.85 15.15,15.15 0 0 1 -2.56,1.07 19.63,19.63 0 0 0 -2.52,0.72 z"
       style="fill:#263238"
       id="path308" />
    <path
       d="m 161.24,446 a 4.32,4.32 0 0 0 0.63,-2.61 8.8,8.8 0 0 0 -1.19,-4.53 2.23,2.23 0 0 0 -1.75,-1.31 1.27,1.27 0 0 0 -1.1,0.79 3.69,3.69 0 0 0 -0.25,1 5.73,5.73 0 0 0 0.06,1.81 6.11,6.11 0 0 0 1.23,2.73 c 1.09,1.36 2.19,1.64 2.21,1.55 0.02,-0.09 -0.85,-0.61 -1.69,-1.92 a 6.21,6.21 0 0 1 -0.92,-2.5 5.37,5.37 0 0 1 0,-1.55 c 0.06,-0.57 0.26,-1 0.48,-1 0.22,0 0.73,0.41 1,0.85 a 8.72,8.72 0 0 1 0.71,1.44 9.44,9.44 0 0 1 0.6,2.66 c 0.08,1.59 -0.17,2.59 -0.02,2.59 z"
       style="fill:#263238"
       id="path310" />
    <path
       d="m 154.3,438.06 c 0,0 -2.09,-94.25 -0.24,-105 1.85,-10.75 8.88,-22.35 15.55,-23.42 6.67,-1.07 66.1,-5.27 66.1,-5.27 H 280 l -11.3,42.95 -54,0.49 -16.79,0.39 -5.42,89.91 z"
       style="fill:#666666"
       id="path312" />
    <path
       d="m 196.75,334 a 6.68,6.68 0 0 1 0.8,1.89 24.55,24.55 0 0 1 1,9.78 6.07,6.07 0 0 1 -0.39,2 c -0.16,0 0.27,-3.11 -0.15,-6.9 -0.42,-3.79 -1.42,-6.72 -1.26,-6.77 z"
       style="fill:#455a64"
       id="path314" />
    <path
       d="m 180.58,342.05 c 0,0 0.23,-0.17 0.69,-0.38 a 16.17,16.17 0 0 1 2,-0.75 9.09,9.09 0 0 1 3.14,-0.46 7.29,7.29 0 0 1 3.66,1.32 c 2.27,1.5 4.27,2.9 5.72,3.92 a 15.49,15.49 0 0 1 2.27,1.76 16.07,16.07 0 0 1 -2.48,-1.45 c -1.5,-0.95 -3.55,-2.31 -5.79,-3.79 a 7,7 0 0 0 -3.41,-1.28 9.61,9.61 0 0 0 -3,0.33 c -1.74,0.45 -2.77,0.86 -2.8,0.78 z"
       style="fill:#455a64"
       id="path316" />
    <path
       d="m 165.79,436.63 c -0.15,0 -0.26,-21.4 -0.26,-47.78 0,-26.38 0.11,-47.79 0.26,-47.79 0.15,0 0.26,21.39 0.26,47.79 0,26.4 -0.12,47.78 -0.26,47.78 z"
       style="fill:#455a64"
       id="path318" />
    <path
       d="m 188.77,314.09 c 0,0.1 -1.85,0.11 -4.7,0.85 a 23.94,23.94 0 0 0 -16.49,14.69 c -1.06,2.76 -1.28,4.6 -1.39,4.58 a 5.34,5.34 0 0 1 0.14,-1.29 20.61,20.61 0 0 1 0.9,-3.41 23.27,23.27 0 0 1 16.77,-14.93 20.79,20.79 0 0 1 3.49,-0.51 5.23,5.23 0 0 1 1.28,0.02 z"
       style="fill:#455a64"
       id="path320" />
    <path
       d="m 210.51,311.7 a 65,65 0 0 1 -8.15,1.28 66.8,66.8 0 0 1 -8.21,0.76 65,65 0 0 1 8.15,-1.28 66.64,66.64 0 0 1 8.21,-0.76 z"
       style="fill:#455a64"
       id="path322" />
    <path
       d="m 261.86,430.66 -2.59,31.52 -9.27,24.34 a 3.23,3.23 0 0 0 2.09,4.25 v 0 a 3.17,3.17 0 0 0 2.91,-0.53 c 5.29,-4.1 24.66,-19.27 24.72,-21.58 0.07,-2.69 4.94,-33.07 4.94,-33.07 z"
       style="fill:#61dafb"
       id="path324" />
    <g
       style="opacity:0.6"
       id="g328">
      <path
         d="m 252.12,490.77 27.88,-24.24 -0.14,1.34 a 4.86,4.86 0 0 1 -1.48,3 c -2.25,2.14 -8.57,7.9 -23.22,19.36 a 3.2,3.2 0 0 1 -3,0.52 z"
         style="fill:#ffffff"
         id="path326" />
    </g>
    <g
       style="opacity:0.6"
       id="g332">
      <path
         d="m 274.59,455.71 a 2,2 0 0 0 -0.81,2.49 1.88,1.88 0 0 0 2.46,0.81 2.06,2.06 0 0 0 0.84,-2.64 2,2 0 0 0 -2.65,-0.56"
         style="fill:#ffffff"
         id="path330" />
    </g>
    <path
       d="m 260.75,477.79 c -0.18,0.07 -0.72,-1.65 -2.5,-2.74 -1.78,-1.09 -3.53,-0.87 -3.55,-1.07 -0.02,-0.2 0.41,-0.28 1.16,-0.31 a 5,5 0 0 1 2.76,0.79 5.1,5.1 0 0 1 1.91,2.16 c 0.3,0.68 0.3,1.15 0.22,1.17 z"
       style="fill:#263238"
       id="path334" />
    <path
       d="m 258.07,481.77 c -0.17,0.12 -1.07,-1 -2.64,-1.65 -1.57,-0.65 -3,-0.52 -3,-0.72 0,-0.2 1.51,-0.68 3.29,0.08 1.78,0.76 2.52,2.22 2.35,2.29 z"
       style="fill:#263238"
       id="path336" />
    <path
       d="m 265.49,472.83 c -0.16,0.13 -1.54,-1.61 -3.91,-2.82 -2.37,-1.21 -4.56,-1.36 -4.55,-1.58 0.01,-0.22 2.35,-0.36 4.87,1 2.52,1.36 3.75,3.33 3.59,3.4 z"
       style="fill:#263238"
       id="path338" />
    <path
       d="m 267.08,463.31 c -0.1,0.18 -1.76,-0.73 -4,-1.05 -2.24,-0.32 -4.1,0 -4.14,-0.16 -0.04,-0.16 1.83,-0.89 4.25,-0.52 2.42,0.37 4.01,1.6 3.89,1.73 z"
       style="fill:#263238"
       id="path340" />
    <path
       d="m 268.08,454.08 c -0.12,0.17 -1.76,-1.06 -4.15,-1.2 -2.39,-0.14 -4.19,0.79 -4.29,0.6 -0.1,-0.19 0.34,-0.43 1.11,-0.77 a 7.05,7.05 0 0 1 6.34,0.45 c 0.71,0.45 1.04,0.84 0.99,0.92 z"
       style="fill:#263238"
       id="path342" />
    <path
       d="m 264.17,451.12 a 2.66,2.66 0 0 1 0.08,-1.19 8.46,8.46 0 0 1 1.27,-3 3.72,3.72 0 0 1 1.76,-1.58 1.32,1.32 0 0 1 1.43,0.44 2.12,2.12 0 0 1 0.35,1.47 4.59,4.59 0 0 1 -4.44,3.8 5.31,5.31 0 0 1 -4.9,-3.31 1.85,1.85 0 0 1 0.07,-1.54 1.3,1.3 0 0 1 1.41,-0.53 4.52,4.52 0 0 1 1.95,1.3 9,9 0 0 1 1.89,2.67 2.67,2.67 0 0 1 0.37,1.13 15.19,15.19 0 0 0 -2.59,-3.45 4.22,4.22 0 0 0 -1.74,-1.08 0.67,0.67 0 0 0 -0.76,0.28 1.22,1.22 0 0 0 0,1 4.73,4.73 0 0 0 4.28,2.82 4,4 0 0 0 3.81,-3.16 1.58,1.58 0 0 0 -0.2,-1 0.72,0.72 0 0 0 -0.79,-0.26 3.43,3.43 0 0 0 -1.51,1.32 12,12 0 0 0 -1.74,3.87 z"
       style="fill:#263238"
       id="path344" />
    <polygon
       points="247.64,206.14 232.03,200.79 205.39,210.55 203.36,214.29 230.19,211.37 "
       style="fill:#61dafb"
       id="polygon346" />
    <path
       d="m 294.49,320.36 c 0,0 -27.07,2.44 -31.55,7 -4.48,4.56 -6.25,15.44 -7.43,22.47 -1.18,7.03 -2.85,91 -2.85,91 l 39,1.13 5.69,-90.91 c 0,0 18.15,-1.11 21.11,-13.33 2.96,-12.22 -4.46,-33.4 -4.46,-33.4 l -20.49,4.58 z"
       style="fill:#666666"
       id="path348" />
    <path
       d="m 297.66,335.69 a 73.62,73.62 0 0 1 -0.12,8.69 73.43,73.43 0 0 1 -0.64,8.66 71.07,71.07 0 0 1 0.12,-8.69 71,71 0 0 1 0.64,-8.66 z"
       style="fill:#455a64"
       id="path350" />
    <path
       d="m 304.66,335.93 a 8.44,8.44 0 0 1 0,2.53 19.72,19.72 0 0 1 -4.91,11 8.24,8.24 0 0 1 -1.88,1.7 24.77,24.77 0 0 0 6.79,-15.26 z"
       style="fill:#455a64"
       id="path352" />
    <path
       d="m 253.85,390.16 a 6.33,6.33 0 0 1 0,-0.68 v -1.91 c 0,-1.73 0,-4.13 0.05,-7.06 0.07,-6 0,-14.2 0.61,-23.3 0.61,-9.1 2.22,-17.29 4.61,-22.8 a 31.77,31.77 0 0 1 1.75,-3.63 21,21 0 0 1 1.58,-2.6 c 0.47,-0.64 0.84,-1.16 1.14,-1.56 a 2.9,2.9 0 0 1 0.42,-0.52 2.88,2.88 0 0 1 -0.34,0.59 l -1.05,1.6 a 23.24,23.24 0 0 0 -1.49,2.63 32.28,32.28 0 0 0 -1.67,3.63 c -2.29,5.5 -3.84,13.65 -4.43,22.7 -0.59,9.05 -0.6,17.3 -0.76,23.26 -0.07,3 -0.14,5.39 -0.22,7.06 0,0.79 -0.07,1.43 -0.1,1.92 a 2.54,2.54 0 0 1 -0.1,0.67 z"
       style="fill:#455a64"
       id="path354" />
    <path
       d="m 269.86,434.91 a 1,1 0 0 1 0,-0.28 c 0,-0.21 0,-0.47 0,-0.8 0,-0.75 0,-1.78 -0.08,-3.1 -0.06,-2.69 -0.09,-6.58 -0.07,-11.4 0.05,-9.62 0.42,-22.92 1.48,-37.57 1.06,-14.65 2.64,-27.87 4,-37.4 0.68,-4.76 1.27,-8.61 1.73,-11.27 0.22,-1.29 0.4,-2.31 0.52,-3 l 0.15,-0.79 a 1.23,1.23 0 0 1 0.07,-0.27 0.86,0.86 0 0 1 0,0.28 c 0,0.21 -0.06,0.47 -0.1,0.8 -0.11,0.74 -0.25,1.76 -0.43,3.07 -0.4,2.66 -0.94,6.51 -1.56,11.28 -1.26,9.54 -2.76,22.74 -3.84,37.39 -1.08,14.65 -1.49,27.92 -1.63,37.54 -0.07,4.81 -0.1,8.7 -0.09,11.39 0,1.31 0,2.35 0,3.1 v 0.8 c -0.14,0.14 -0.15,0.23 -0.15,0.23 z"
       style="fill:#455a64"
       id="path356" />
    <path
       d="m 231.05,312.16 c 0,0 -13.24,6.83 -16.23,9.39 a 176.66,176.66 0 0 0 -12.81,13 l -7.69,15.16 c 0,0 0.19,8.31 0.72,10.35 0.53,2.04 3.56,2.46 3.56,0.11 0,-2.35 0.21,-7.9 0.21,-7.9 l 3.63,-5.34 -1.92,5.13 c 0,0 -0.54,11 1.49,11.74 2.03,0.74 2.92,-0.18 2.92,-2.53 0,-2.35 0.22,-8.81 0.22,-8.81 l 3.58,-6 -0.74,6.9 c 0,0 -0.85,8.54 0.21,9.82 1.06,1.28 3,-0.85 3,-0.85 0,0 2.57,4.91 3.63,0.21 1.06,-4.7 1.71,-9.61 1.71,-9.61 l 5.77,-14.57 5.55,-8.92 9.39,-3.41 c 0,0 1.91,-11.95 -6.2,-13.87 z"
       style="fill:#ffbe9d"
       id="path358" />
    <path
       d="m 214.5,345.7 a 18.45,18.45 0 0 1 -0.79,2.4 44.82,44.82 0 0 0 -2.37,11.9 17.48,17.48 0 0 1 -0.19,2.53 8.93,8.93 0 0 1 -0.15,-2.53 33.36,33.36 0 0 1 2.39,-12 9.33,9.33 0 0 1 1.11,-2.3 z"
       style="fill:#eb996e"
       id="path360" />
    <path
       d="m 240.18,206.32 c 0,0 21,-1.57 29.16,1.32 8.16,2.89 21,7.61 23.12,18.39 0,0 11,33.63 12.09,39.93 1.09,6.3 5.25,26.8 5.25,26.8 0,0 6.57,5.52 6.57,11 l -39.93,8.93 c 0,0 -30.48,1 -40.73,-8.41 v -6.57 a 16.7,16.7 0 0 1 -3.41,-6 l -1.58,-6.31 c 0,0 -20.23,-16.55 -22.86,-21.8 -2.63,-5.25 -18.91,-31 -18.91,-31 0,0 0.79,-11 11,-16.29 10.21,-5.29 40.23,-9.99 40.23,-9.99 z"
       style="fill:#61dafb"
       id="path362" />
    <path
       d="m 207.86,263.6 c 0,0 -0.13,0.52 -0.37,1.44 -1.88,7.27 -10.53,39.61 -15.5,41.82 -5.61,2.49 -17.41,5.92 -25.51,-4.67 -8.1,-10.59 -4.19,-58.62 -4.19,-58.62 l 19.45,-0.35 0.6,18.18 6.66,-28.8 20.79,25.06 z"
       style="fill:#61dafb"
       id="path364" />
    <path
       d="m 246.91,205.89 a 7.38,7.38 0 0 1 0.08,1.33 c 0,0.94 0,2.19 0.07,3.74 v 0 c -1.27,4.67 -3.58,12.34 -6.27,21 -1.66,5.36 -3.19,10.34 -4.41,14.47 l -0.27,0.91 -0.15,-0.93 a 8,8 0 0 0 -2.09,-4.18 8.87,8.87 0 0 0 -3,-2.09 10.36,10.36 0 0 0 -3.11,-0.7 3.33,3.33 0 0 1 0.85,0 7.85,7.85 0 0 1 2.35,0.51 9,9 0 0 1 3.14,2.08 8.33,8.33 0 0 1 2.26,4.35 h -0.42 c 1.16,-4.15 2.66,-9.14 4.32,-14.5 2.66,-8.57 5,-16.14 6.48,-20.89 v 0 c 0,-1.55 0.05,-2.8 0.07,-3.74 a 8.8,8.8 0 0 1 0.1,-1.36 z"
       style="fill:#263238"
       id="path366" />
    <path
       d="m 240,207.82 a 7,7 0 0 1 -0.45,1.25 c -0.35,0.89 -0.81,2 -1.35,3.35 -1.14,2.82 -2.67,6.74 -4.28,11.1 l -4.09,11.19 -1.27,3.39 a 6.12,6.12 0 0 1 -0.53,1.21 6.93,6.93 0 0 1 0.34,-1.28 c 0.3,-0.91 0.67,-2.06 1.11,-3.44 1,-2.89 2.33,-6.88 3.95,-11.25 1.62,-4.37 3.2,-8.27 4.43,-11.07 0.62,-1.39 1.13,-2.52 1.51,-3.28 a 5.41,5.41 0 0 1 0.63,-1.17 z"
       style="fill:#263238"
       id="path368" />
    <path
       d="m 205.73,225.51 c 0.05,0 -0.29,0.51 -0.56,1.5 a 8,8 0 0 0 0.08,4.26 12.61,12.61 0 0 0 3.38,5.37 56.72,56.72 0 0 0 6.08,5.1 76.81,76.81 0 0 0 10.28,6.4 l -0.3,0.22 a 10.62,10.62 0 0 1 0.88,-6 9.47,9.47 0 0 1 0.85,-1.46 2.39,2.39 0 0 1 0.39,-0.46 c 0.05,0 -0.46,0.69 -1,2 a 10.89,10.89 0 0 0 -0.69,5.87 l 0.07,0.4 -0.37,-0.18 a 69,69 0 0 1 -10.4,-6.35 54.15,54.15 0 0 1 -6.12,-5.18 12.81,12.81 0 0 1 -3.39,-5.61 7.89,7.89 0 0 1 0.09,-4.39 5.93,5.93 0 0 1 0.5,-1.1 c 0.13,-0.28 0.21,-0.4 0.23,-0.39 z"
       style="fill:#263238"
       id="path370" />
    <path
       d="m 248.1,280 a 2.16,2.16 0 0 1 -0.46,-0.1 6.64,6.64 0 0 1 -1.24,-0.51 10.53,10.53 0 0 1 -3.65,-3.26 20.47,20.47 0 0 1 -3,-6.63 63.39,63.39 0 0 0 -2.61,-8.43 63,63 0 0 0 -4.29,-7.7 55.41,55.41 0 0 1 -3.53,-6.35 21.34,21.34 0 0 1 -1.52,-4.66 12.52,12.52 0 0 1 -0.17,-1.32 1.46,1.46 0 0 1 0,-0.46 16.43,16.43 0 0 1 0.39,1.74 23.14,23.14 0 0 0 1.66,4.55 60,60 0 0 0 3.59,6.25 57.68,57.68 0 0 1 4.37,7.74 60.5,60.5 0 0 1 2.59,8.51 21,21 0 0 0 2.83,6.55 11,11 0 0 0 3.45,3.3 c 0.98,0.57 1.61,0.78 1.59,0.78 z"
       style="fill:#263238"
       id="path372" />
    <path
       d="m 275.59,281.07 a 8.45,8.45 0 0 1 -1.54,0.51 c -1,0.3 -2.48,0.68 -4.3,1.11 a 118.22,118.22 0 0 1 -14.45,2.39 117,117 0 0 1 -14.64,0.55 c -1.88,-0.05 -3.39,-0.13 -4.44,-0.22 a 9.6,9.6 0 0 1 -1.62,-0.19 9.48,9.48 0 0 1 1.63,0 c 1.05,0 2.56,0.06 4.43,0.06 a 141.62,141.62 0 0 0 14.58,-0.7 144.71,144.71 0 0 0 14.43,-2.23 c 1.83,-0.38 3.31,-0.71 4.33,-0.95 a 11.15,11.15 0 0 1 1.59,-0.33 z"
       style="fill:#263238"
       id="path374" />
    <path
       d="m 280.62,298 a 6.82,6.82 0 0 1 -1.45,0.2 c -0.93,0.1 -2.29,0.21 -4,0.31 -3.36,0.2 -8,0.34 -13.14,0.22 -5.14,-0.12 -9.77,-0.46 -13.12,-0.82 -1.67,-0.17 -3,-0.34 -3.95,-0.48 a 7.21,7.21 0 0 1 -1.44,-0.26 7.66,7.66 0 0 1 1.46,0.06 l 4,0.32 c 3.34,0.26 8,0.54 13.09,0.66 5.09,0.12 9.76,0 13.12,-0.07 l 4,-0.14 a 9.1,9.1 0 0 1 1.43,0 z"
       style="fill:#263238"
       id="path376" />
    <path
       d="m 257.83,299.17 a 5.43,5.43 0 0 1 -1.89,-1.42 11,11 0 0 1 -2.69,-10.68 5.48,5.48 0 0 1 1,-2.14 c 0.08,0 -0.32,0.84 -0.63,2.23 a 11.66,11.66 0 0 0 2.6,10.34 c 0.93,1.08 1.66,1.6 1.61,1.67 z"
       style="fill:#263238"
       id="path378" />
    <path
       d="m 230.72,285.4 c 0,0 -0.17,-0.08 -0.47,-0.29 l -1.28,-0.94 -2,-1.5 c -0.78,-0.63 -1.64,-1.33 -2.6,-2.09 a 121.84,121.84 0 0 1 -13.9,-13.35 94,94 0 0 1 -11.28,-15.63 c -1.22,-2.15 -2.09,-3.95 -2.67,-5.2 -0.26,-0.59 -0.46,-1.07 -0.63,-1.46 a 2.55,2.55 0 0 1 -0.19,-0.52 1.92,1.92 0 0 1 0.29,0.48 l 0.71,1.41 c 0.63,1.23 1.55,3 2.81,5.11 a 102.17,102.17 0 0 0 11.35,15.46 136.42,136.42 0 0 0 13.74,13.42 l 2.54,2.14 2,1.57 c 0.5,0.41 0.9,0.75 1.23,1 a 3,3 0 0 1 0.35,0.39 z"
       style="fill:#263238"
       id="path380" />
    <path
       d="m 186.86,300.65 c 0,0 0.17,-0.8 0.44,-2.24 a 35,35 0 0 0 0.58,-6.17 53.18,53.18 0 0 0 -0.79,-9.16 c -0.57,-3.42 -1.44,-7.14 -2.43,-11 A 80.65,80.65 0 0 1 182.23,261 c -0.42,-3.47 -0.49,-6.61 -0.56,-9.24 -0.07,-2.63 0,-4.76 0,-6.23 0,-0.69 0,-1.25 0,-1.7 a 2.16,2.16 0 0 1 0.05,-0.59 2.36,2.36 0 0 1 0.06,0.59 c 0,0.45 0,1 0,1.7 0.05,1.54 0.11,3.65 0.19,6.22 0.08,2.57 0.22,5.76 0.66,9.19 a 85.41,85.41 0 0 0 2.47,11 c 1,3.89 1.84,7.63 2.39,11.08 a 51.15,51.15 0 0 1 0.69,9.24 31.67,31.67 0 0 1 -0.75,6.2 c -0.14,0.73 -0.34,1.27 -0.44,1.64 a 1.92,1.92 0 0 1 -0.13,0.55 z"
       style="fill:#263238"
       id="path382" />
    <path
       d="m 180.86,257.37 c 0,0 -0.23,0.16 -0.67,0.36 a 14.15,14.15 0 0 1 -1.92,0.68 21.46,21.46 0 0 1 -6.67,0.84 22.1,22.1 0 0 1 -6.6,-1.25 15,15 0 0 1 -1.87,-0.81 c -0.43,-0.22 -0.66,-0.36 -0.64,-0.39 0.02,-0.03 1,0.35 2.63,0.85 a 25,25 0 0 0 13.08,0.4 c 1.63,-0.39 2.62,-0.76 2.66,-0.68 z"
       style="fill:#263238"
       id="path384" />
    <path
       d="m 266.09,251.44 5.61,45.46 -52,17.43 8.72,18.67 c 0,0 66.26,-9.14 68.5,-14 1.85,-4 3.42,-14 3.42,-14 l -0.77,-56.69 c 0,0 -11.68,-37 -21.33,-33.6 -9.65,3.4 -14.07,21.17 -12.15,36.73 z"
       style="fill:#61dafb"
       id="path386" />
    <path
       d="m 285,307.36 a 12.05,12.05 0 0 0 -2.32,-4.26 15.32,15.32 0 0 0 -4.33,-3.49 16.8,16.8 0 0 0 -6.85,-2.15 h 0.08 c -5.1,1.52 -11.13,3.28 -17.41,5.67 -9.45,3.35 -18.17,5.87 -24.39,7.87 -3.12,1 -5.63,1.83 -7.37,2.42 l -2,0.68 a 3.34,3.34 0 0 1 -0.71,0.2 4.75,4.75 0 0 1 0.67,-0.3 c 0.45,-0.18 1.11,-0.45 2,-0.77 1.72,-0.65 4.22,-1.54 7.33,-2.58 6.21,-2.13 14.9,-4.7 24.32,-8.05 6.29,-2.39 12.36,-4.13 17.46,-5.61 h 0.08 a 17,17 0 0 1 7,2.28 15.56,15.56 0 0 1 4.35,3.65 10.33,10.33 0 0 1 1.8,3.17 5.08,5.08 0 0 1 0.25,0.93 1.31,1.31 0 0 1 0.04,0.34 z"
       style="fill:#263238"
       id="path388" />
    <path
       d="m 265.76,240.59 c 0.15,0 1.55,12.65 3.14,28.3 1.59,15.65 2.76,28.33 2.61,28.35 -0.15,0.02 -1.54,-12.65 -3.13,-28.3 -1.59,-15.65 -2.76,-28.34 -2.62,-28.35 z"
       style="fill:#263238"
       id="path390" />
    <path
       d="m 296.82,241.35 a 5.37,5.37 0 0 1 0.22,0.75 l 0.55,2.18 c 0.24,0.95 0.52,2.11 0.79,3.47 0.27,1.36 0.63,2.9 0.91,4.62 0.64,3.43 1.24,7.55 1.74,12.14 0.5,4.59 0.8,9.66 0.89,15 0.09,5.34 -0.13,10.41 -0.47,15 -0.34,4.59 -0.85,8.74 -1.39,12.19 -0.24,1.73 -0.54,3.28 -0.78,4.64 -0.24,1.36 -0.48,2.54 -0.69,3.49 -0.21,0.95 -0.37,1.64 -0.49,2.19 a 4.33,4.33 0 0 1 -0.21,0.76 A 5.63,5.63 0 0 1 298,317 c 0.09,-0.55 0.22,-1.29 0.39,-2.21 0.17,-0.92 0.39,-2.13 0.6,-3.5 0.21,-1.37 0.49,-2.92 0.7,-4.65 0.5,-3.45 0.94,-7.57 1.29,-12.16 0.35,-4.59 0.48,-9.66 0.42,-15 -0.06,-5.34 -0.41,-10.36 -0.85,-14.95 -0.44,-4.59 -1,-8.69 -1.62,-12.12 -0.26,-1.72 -0.59,-3.26 -0.84,-4.63 -0.25,-1.37 -0.49,-2.52 -0.7,-3.48 -0.21,-0.96 -0.34,-1.64 -0.45,-2.2 a 3.7,3.7 0 0 1 -0.12,-0.75 z"
       style="fill:#263238"
       id="path392" />
    <path
       d="m 240.65,331 c -0.1,0 0.1,-1.25 0.07,-3.27 a 21.73,21.73 0 0 0 -0.33,-3.51 23.18,23.18 0 0 0 -3,-8 23.57,23.57 0 0 0 -2.05,-2.88 c -1.29,-1.54 -2.25,-2.35 -2.19,-2.42 0.06,-0.07 0.28,0.15 0.72,0.51 a 14.68,14.68 0 0 1 1.75,1.67 19.8,19.8 0 0 1 2.18,2.87 21.66,21.66 0 0 1 3.06,8.21 20.53,20.53 0 0 1 0.22,3.59 14.28,14.28 0 0 1 -0.23,2.41 3,3 0 0 1 -0.2,0.82 z"
       style="fill:#263238"
       id="path394" />
    <path
       d="m 281.38,218.56 c 0,0.1 -1.26,0.15 -3.22,0.66 a 19.5,19.5 0 0 0 -3.33,1.2 22.06,22.06 0 0 0 -3.71,2.24 22.5,22.5 0 0 0 -3.14,3 19.5,19.5 0 0 0 -2,2.89 c -1,1.75 -1.4,3 -1.49,2.93 a 2.67,2.67 0 0 1 0.21,-0.87 6.94,6.94 0 0 1 0.37,-1 9.89,9.89 0 0 1 0.59,-1.26 17.5,17.5 0 0 1 2,-3 21,21 0 0 1 3.2,-3.09 20.76,20.76 0 0 1 3.82,-2.26 17.48,17.48 0 0 1 3.44,-1.12 12.22,12.22 0 0 1 1.37,-0.23 6.18,6.18 0 0 1 1.05,-0.09 2.82,2.82 0 0 1 0.84,0 z"
       style="fill:#263238"
       id="path396" />
    <path
       d="m 259,308.27 a 10.49,10.49 0 0 1 1.77,-8.79 c 0.14,0.08 -0.88,1.86 -1.36,4.3 -0.48,2.44 -0.29,4.47 -0.41,4.49 z"
       style="fill:#263238"
       id="path398" />
    <path
       d="m 288.42,224.91 h -0.22 l -0.62,-0.1 c -0.53,-0.1 -1.31,-0.21 -2.27,-0.3 a 31.32,31.32 0 0 0 -7.54,0.14 31.69,31.69 0 0 0 -7.29,2 c -0.9,0.36 -1.61,0.68 -2.1,0.92 l -0.56,0.27 c -0.13,0.06 -0.2,0.09 -0.21,0.08 a 0.7,0.7 0 0 1 0.19,-0.12 l 0.54,-0.3 a 22.6,22.6 0 0 1 2.08,-1 29.56,29.56 0 0 1 14.9,-2.11 c 1,0.12 1.75,0.25 2.28,0.37 l 0.61,0.14 a 0.64,0.64 0 0 1 0.21,0.01 z"
       style="fill:#fafafa"
       id="path400" />
    <path
       d="m 297.11,244.09 h -0.31 l -0.88,-0.13 c -0.76,-0.13 -1.88,-0.29 -3.25,-0.46 a 76.92,76.92 0 0 0 -21.57,0.4 c -1.37,0.22 -2.47,0.42 -3.23,0.57 l -0.88,0.17 -0.31,0.05 a 1.31,1.31 0 0 1 0.3,-0.09 l 0.87,-0.21 c 0.76,-0.18 1.86,-0.4 3.22,-0.64 a 73.63,73.63 0 0 1 10.8,-1 71.28,71.28 0 0 1 10.82,0.62 c 1.37,0.18 2.48,0.37 3.24,0.52 l 0.88,0.17 a 1.1,1.1 0 0 1 0.3,0.03 z"
       style="fill:#fafafa"
       id="path402" />
    <path
       d="m 300.62,261.67 a 1.34,1.34 0 0 1 -0.33,0 l -0.94,-0.12 c -0.81,-0.12 -2,-0.27 -3.44,-0.43 a 94.71,94.71 0 0 0 -11.43,-0.57 96,96 0 0 0 -11.42,0.82 c -1.45,0.19 -2.62,0.37 -3.43,0.51 l -0.93,0.15 a 1.38,1.38 0 0 1 -0.33,0 l 0.32,-0.08 0.93,-0.18 c 0.8,-0.17 2,-0.36 3.42,-0.58 a 88.72,88.72 0 0 1 11.44,-0.88 87.46,87.46 0 0 1 11.44,0.63 c 1.46,0.18 2.64,0.35 3.44,0.5 l 0.93,0.16 z"
       style="fill:#fafafa"
       id="path404" />
    <path
       d="m 301.64,275.23 h -0.33 l -0.94,-0.06 c -0.82,-0.05 -2,-0.12 -3.47,-0.18 -2.93,-0.13 -7,-0.19 -11.45,0 -4.45,0.19 -8.5,0.7 -11.4,1.13 -1.45,0.21 -2.62,0.4 -3.43,0.54 l -0.93,0.16 h -0.32 a 1,1 0 0 1 0.32,-0.08 l 0.92,-0.19 c 0.8,-0.17 2,-0.38 3.42,-0.61 a 107.73,107.73 0 0 1 22.88,-1.18 c 1.46,0.08 2.65,0.17 3.46,0.25 l 0.94,0.1 a 1.23,1.23 0 0 1 0.33,0.12 z"
       style="fill:#fafafa"
       id="path406" />
    <path
       d="m 301.07,293.14 a 1.11,1.11 0 0 1 -0.3,-0.06 l -0.86,-0.2 c -0.73,-0.19 -1.81,-0.43 -3.14,-0.71 a 82,82 0 0 0 -10.51,-1.48 80.88,80.88 0 0 0 -10.62,-0.07 c -1.36,0.08 -2.46,0.17 -3.21,0.24 l -0.88,0.08 a 1,1 0 0 1 -0.3,0 l 0.3,-0.05 0.87,-0.12 c 0.75,-0.1 1.85,-0.21 3.21,-0.31 A 73.35,73.35 0 0 1 296.8,292 c 1.33,0.29 2.4,0.56 3.13,0.77 l 0.85,0.24 z"
       style="fill:#fafafa"
       id="path408" />
    <path
       d="m 296,319.65 c 0,0 0,-0.12 -0.12,-0.34 -0.12,-0.22 -0.19,-0.61 -0.3,-1 a 14,14 0 0 0 -0.52,-1.54 c -0.24,-0.59 -0.46,-1.28 -0.81,-2 a 25.38,25.38 0 0 0 -1.17,-2.33 c -0.42,-0.84 -1,-1.67 -1.55,-2.56 a 36.23,36.23 0 0 0 -4.42,-5.23 35.08,35.08 0 0 0 -5.4,-4.21 c -0.91,-0.53 -1.76,-1.06 -2.62,-1.45 a 22.59,22.59 0 0 0 -2.37,-1.07 c -0.73,-0.33 -1.43,-0.53 -2,-0.74 -0.57,-0.21 -1.12,-0.35 -1.56,-0.46 l -1,-0.26 -0.35,-0.1 a 1.52,1.52 0 0 1 0.36,0.06 l 1,0.23 a 14.13,14.13 0 0 1 1.58,0.42 c 0.6,0.2 1.31,0.39 2,0.71 a 24.79,24.79 0 0 1 2.4,1.05 c 0.86,0.39 1.72,0.92 2.64,1.45 a 35.32,35.32 0 0 1 5.45,4.22 35.82,35.82 0 0 1 4.42,5.27 c 0.57,0.9 1.13,1.74 1.55,2.58 a 23,23 0 0 1 1.15,2.36 c 0.35,0.72 0.56,1.42 0.79,2 a 11.87,11.87 0 0 1 0.48,1.56 l 0.27,1 c 0.04,0.26 0.1,0.38 0.1,0.38 z"
       style="fill:#fafafa"
       id="path410" />
    <path
       d="m 272.22,325.93 a 1.45,1.45 0 0 1 -0.05,-0.27 c 0,-0.24 -0.05,-0.5 -0.08,-0.78 -0.07,-0.69 -0.2,-1.67 -0.4,-2.88 a 49.29,49.29 0 0 0 -2.44,-9.25 50.75,50.75 0 0 0 -4.21,-8.6 c -0.65,-1 -1.2,-1.87 -1.59,-2.43 -0.17,-0.24 -0.32,-0.45 -0.45,-0.65 a 2,2 0 0 1 -0.15,-0.24 1.32,1.32 0 0 1 0.18,0.21 l 0.48,0.63 c 0.42,0.55 1,1.37 1.65,2.4 a 46,46 0 0 1 6.68,17.9 c 0.18,1.22 0.29,2.21 0.33,2.9 0,0.29 0,0.55 0.05,0.79 a 0.92,0.92 0 0 1 0,0.27 z"
       style="fill:#fafafa"
       id="path412" />
    <path
       d="m 254.31,329 v -0.25 -0.73 c 0,-0.63 0.06,-1.54 0,-2.67 a 44.31,44.31 0 0 0 -1.19,-8.7 43.21,43.21 0 0 0 -2.87,-8.31 c -0.47,-1 -0.9,-1.83 -1.21,-2.38 l -0.36,-0.63 a 1.43,1.43 0 0 1 -0.11,-0.23 1.07,1.07 0 0 1 0.15,0.21 l 0.39,0.61 a 26.73,26.73 0 0 1 1.28,2.36 40.62,40.62 0 0 1 2.93,8.32 40.09,40.09 0 0 1 1.13,8.75 24.78,24.78 0 0 1 -0.08,2.68 c 0,0.26 0,0.5 -0.07,0.72 a 1,1 0 0 1 0.01,0.25 z"
       style="fill:#fafafa"
       id="path414" />
    <path
       d="m 293.32,311.74 a 92.58,92.58 0 0 1 -9.2,4.15 226.54,226.54 0 0 1 -23.12,7.61 c -9.19,2.52 -17.61,4.38 -23.76,5.47 -6.15,1.09 -10,1.49 -10,1.49 l 0.7,-0.12 2,-0.28 c 1.73,-0.26 4.22,-0.65 7.28,-1.23 6.14,-1.13 14.55,-3 23.73,-5.53 a 238.76,238.76 0 0 0 23.15,-7.55 c 1.46,-0.57 2.77,-1.08 3.9,-1.59 1.13,-0.51 2.13,-0.89 2.91,-1.28 l 1.81,-0.85 z"
       style="fill:#fafafa"
       id="path416" />
    <path
       d="m 284.49,220 c 0,0 1.52,5 3.38,13.15 1,4.09 1.9,9 2.88,14.45 0.98,5.45 1.8,11.5 2.5,17.87 0.7,6.37 1.09,12.45 1.32,18 0.23,5.55 0.21,10.54 0,14.74 0,1 -0.06,2 -0.11,3 -0.05,1 -0.13,1.82 -0.18,2.66 -0.1,1.66 -0.22,3.09 -0.36,4.26 -0.14,1.17 -0.22,2 -0.29,2.68 -0.07,0.68 -0.12,0.93 -0.12,0.93 0,0 0,-0.32 0.08,-0.93 0.08,-0.61 0.14,-1.56 0.25,-2.69 0.11,-1.13 0.23,-2.6 0.32,-4.26 0.05,-0.83 0.11,-1.72 0.17,-2.66 0.06,-0.94 0.06,-1.94 0.1,-3 0.17,-4.19 0.1,-9.18 -0.06,-14.72 -0.16,-5.54 -0.67,-11.62 -1.34,-18 -0.67,-6.38 -1.57,-12.39 -2.48,-17.86 -0.91,-5.47 -1.9,-10.36 -2.84,-14.45 -0.43,-2 -0.88,-3.89 -1.28,-5.51 -0.4,-1.62 -0.73,-3 -1,-4.14 -0.27,-1.14 -0.51,-2 -0.68,-2.61 -0.17,-0.61 -0.26,-0.91 -0.26,-0.91 z"
       style="fill:#fafafa"
       id="path418" />
    <path
       d="m 277.6,299.69 a 5.41,5.41 0 0 1 -0.52,0.28 l -1.53,0.78 c -1.34,0.65 -3.29,1.57 -5.73,2.63 -4.87,2.15 -11.71,4.88 -19.3,7.75 C 242.93,314 236,316.45 231,318.2 l -6,2 -1.63,0.54 -0.57,0.17 0.56,-0.21 1.61,-0.58 5.94,-2.1 c 5,-1.78 11.94,-4.27 19.54,-7.13 7.6,-2.86 14.44,-5.57 19.32,-7.68 2.45,-1.05 4.4,-1.94 5.75,-2.57 l 1.55,-0.74 z"
       style="fill:#fafafa"
       id="path420" />
    <path
       d="m 271.06,222.38 c 0.06,0 2.28,17.55 5,39.21 2.72,21.66 4.81,39.24 4.75,39.24 -0.06,0 -2.28,-17.54 -5,-39.21 -2.72,-21.67 -4.81,-39.23 -4.75,-39.24 z"
       style="fill:#fafafa"
       id="path422" />
    <path
       d="m 234.94,332.09 a 1.26,1.26 0 0 1 -0.06,-0.21 c 0,-0.2 -0.08,-0.4 -0.12,-0.62 -0.1,-0.54 -0.26,-1.32 -0.48,-2.27 a 51.8,51.8 0 0 0 -5.51,-14.21 c -0.48,-0.86 -0.88,-1.54 -1.17,-2 l -0.33,-0.54 a 0.92,0.92 0 0 1 -0.1,-0.2 0.85,0.85 0 0 1 0.14,0.17 c 0.11,0.17 0.23,0.34 0.36,0.52 0.31,0.45 0.73,1.13 1.23,2 a 47.89,47.89 0 0 1 5.53,14.27 c 0.2,1 0.34,1.75 0.41,2.29 l 0.09,0.63 a 0.92,0.92 0 0 1 0.01,0.17 z"
       style="fill:#fafafa"
       id="path424" />
    <path
       d="m 237.64,261.75 h -0.34 -1 c -0.83,0 -2,0.07 -3.53,0.09 -3,0 -7.11,-0.05 -11.65,-0.38 -4.54,-0.33 -8.64,-0.85 -11.59,-1.32 -1.47,-0.23 -2.66,-0.43 -3.48,-0.59 l -0.94,-0.18 -0.33,-0.08 a 1.16,1.16 0 0 1 0.33,0 l 0.95,0.14 3.5,0.53 c 3,0.42 7,0.92 11.57,1.26 4.57,0.34 8.66,0.42 11.64,0.43 h 3.53 1.3 z"
       style="fill:#fafafa"
       id="path426" />
    <path
       d="m 267.37,257.58 -0.28,0.1 -0.82,0.23 c -0.71,0.2 -1.75,0.46 -3,0.76 -2.57,0.61 -6.15,1.34 -10.15,1.91 -4,0.57 -7.64,0.87 -10.28,1 -1.32,0.07 -2.39,0.1 -3.13,0.11 h -1.15 0.3 l 0.85,-0.05 3.12,-0.18 c 2.64,-0.17 6.27,-0.5 10.26,-1.07 3.99,-0.57 7.57,-1.27 10.15,-1.84 l 3.05,-0.7 0.83,-0.19 z"
       style="fill:#fafafa"
       id="path428" />
    <path
       d="m 230.55,250.69 a 1.35,1.35 0 0 1 -0.35,0 h -1 c -0.88,0 -2.15,0 -3.71,0 a 83.92,83.92 0 0 1 -12.16,-1.3 85.59,85.59 0 0 1 -11.85,-3 c -1.48,-0.51 -2.67,-0.94 -3.48,-1.27 l -0.94,-0.38 -0.32,-0.15 0.34,0.11 0.95,0.34 c 0.82,0.31 2,0.72 3.5,1.21 a 90.38,90.38 0 0 0 24,4.34 c 1.56,0.07 2.83,0.1 3.71,0.1 h 1 z"
       style="fill:#fafafa"
       id="path430" />
    <path
       d="m 265.35,242.4 c 0,0 -7.17,1.81 -16,3.93 -8.83,2.12 -16,3.79 -16.07,3.73 -0.07,-0.06 7.16,-1.82 16,-3.93 8.84,-2.11 16.05,-3.79 16.07,-3.73 z"
       style="fill:#fafafa"
       id="path432" />
    <path
       d="m 264.89,227.71 h -0.23 l -0.66,0.08 -2.44,0.3 c -2.05,0.26 -4.88,0.69 -8,1.33 -3.12,0.64 -5.86,1.38 -7.85,2 l -2.36,0.7 -0.64,0.18 a 1.16,1.16 0 0 1 -0.22,0.06 c 0,0 0.07,0 0.21,-0.1 l 0.63,-0.22 c 0.55,-0.2 1.34,-0.46 2.34,-0.76 2,-0.62 4.75,-1.37 7.85,-2 3.1,-0.63 5.94,-1 8,-1.28 1,-0.11 1.87,-0.19 2.45,-0.23 h 0.67 a 0.68,0.68 0 0 1 0.25,-0.06 z"
       style="fill:#fafafa"
       id="path434" />
    <path
       d="m 275.58,218.69 a 1.11,1.11 0 0 1 -0.3,-0.06 l -0.84,-0.23 c -0.73,-0.21 -1.79,-0.49 -3.1,-0.82 -2.63,-0.66 -6.28,-1.46 -10.37,-2.06 -4.09,-0.6 -7.82,-0.88 -10.53,-1 -1.35,-0.06 -2.45,-0.09 -3.2,-0.1 h -0.88 a 1,1 0 0 1 -0.3,0 h 0.3 0.88 c 0.75,0 1.85,0 3.21,0 a 98.86,98.86 0 0 1 10.55,0.94 95.88,95.88 0 0 1 10.37,2.13 c 1.32,0.35 2.37,0.65 3.09,0.88 l 0.83,0.27 z"
       style="fill:#fafafa"
       id="path436" />
    <path
       d="m 239.62,232.62 c 0,0 -0.4,-0.38 -1.08,-0.92 a 10.36,10.36 0 0 0 -6.34,-2.22 c -0.88,0 -1.42,0.08 -1.42,0 a 1.23,1.23 0 0 1 0.37,-0.09 7.3,7.3 0 0 1 1,-0.1 9.68,9.68 0 0 1 3.42,0.54 9.51,9.51 0 0 1 3,1.71 6.65,6.65 0 0 1 0.75,0.73 1.23,1.23 0 0 1 0.3,0.35 z"
       style="fill:#fafafa"
       id="path438" />
    <path
       d="m 244,220.89 c 0,0 -0.26,-0.47 -0.74,-1.16 a 10.24,10.24 0 0 0 -2.27,-2.37 10.49,10.49 0 0 0 -2.91,-1.52 c -0.81,-0.26 -1.33,-0.34 -1.32,-0.38 0.01,-0.04 0.13,0 0.37,0 a 6.61,6.61 0 0 1 1,0.22 9.37,9.37 0 0 1 5.26,4 6.13,6.13 0 0 1 0.49,0.89 1.21,1.21 0 0 1 0.12,0.32 z"
       style="fill:#fafafa"
       id="path440" />
    <path
       d="m 242.85,207.09 c 0.06,0 -2.21,7.23 -5.06,16.11 -2.85,8.88 -5.21,16.06 -5.26,16 -0.05,-0.06 2.21,-7.22 5.06,-16.11 2.85,-8.89 5.21,-16.02 5.26,-16 z"
       style="fill:#fafafa"
       id="path442" />
    <path
       d="m 215.26,241.91 c 0,0 0,-0.12 -0.08,-0.33 a 4.68,4.68 0 0 1 -0.06,-0.93 7.08,7.08 0 0 1 2.61,-5.38 4.94,4.94 0 0 1 0.77,-0.52 1.2,1.2 0 0 1 0.31,-0.15 c 0,0 -0.4,0.27 -1,0.78 a 7.65,7.65 0 0 0 -2.57,5.27 c -0.02,0.78 0.06,1.25 0.02,1.26 z"
       style="fill:#fafafa"
       id="path444" />
    <path
       d="m 206.88,234.81 c 0,0 0,-0.12 -0.1,-0.35 a 4.31,4.31 0 0 1 -0.1,-1 6.74,6.74 0 0 1 3.11,-5.62 5.11,5.11 0 0 1 0.9,-0.46 c 0.23,-0.08 0.35,-0.12 0.36,-0.1 0.01,0.02 -0.49,0.21 -1.18,0.68 a 7.06,7.06 0 0 0 -2.16,2.4 7,7 0 0 0 -0.88,3.1 c -0.03,0.83 0.09,1.35 0.05,1.35 z"
       style="fill:#fafafa"
       id="path446" />
    <path
       d="m 225.34,243.57 c 0,0 -0.09,0 -0.25,-0.14 l -0.7,-0.43 -2.53,-1.63 c -2.13,-1.39 -5.08,-3.29 -8.3,-5.47 a 24.49,24.49 0 0 1 -4.21,-3.51 12.82,12.82 0 0 1 -2.48,-3.72 9.1,9.1 0 0 1 -0.75,-2.92 5.24,5.24 0 0 1 0,-1.11 c 0,0 0,0.4 0.08,1.1 a 10,10 0 0 0 0.8,2.87 13,13 0 0 0 2.49,3.65 25.11,25.11 0 0 0 4.19,3.47 l 8.26,5.52 2.5,1.68 0.67,0.47 z"
       style="fill:#fafafa"
       id="path448" />
    <path
       d="m 241.19,275.59 a 0.68,0.68 0 0 1 -0.22,0 h -0.6 c -0.53,0 -1.29,0.05 -2.23,0.06 -1.89,0 -4.5,0 -7.37,-0.11 -2.87,-0.11 -5.48,-0.32 -7.36,-0.51 -0.94,-0.09 -1.7,-0.18 -2.22,-0.24 l -0.6,-0.09 h -0.21 a 1.16,1.16 0 0 1 0.21,0 h 0.61 l 2.22,0.17 c 1.88,0.15 4.48,0.33 7.35,0.45 2.87,0.12 5.48,0.16 7.36,0.17 h 3.06 z"
       style="fill:#fafafa"
       id="path450" />
    <path
       d="m 268,275.9 a 0.81,0.81 0 0 1 -0.24,0.06 l -0.7,0.12 c -0.62,0.1 -1.5,0.23 -2.6,0.37 -2.2,0.29 -5.25,0.58 -8.63,0.71 -3.38,0.13 -6.45,0 -8.66,-0.08 -1.11,-0.06 -2,-0.12 -2.62,-0.18 l -0.71,-0.07 h -0.25 a 0.81,0.81 0 0 1 0.25,0 h 0.71 l 2.62,0.12 c 2.22,0.08 5.27,0.13 8.65,0 3.38,-0.13 6.42,-0.4 8.62,-0.64 l 2.6,-0.31 0.71,-0.08 z"
       style="fill:#fafafa"
       id="path452" />
    <path
       d="m 253.38,293.19 h -0.2 l -0.57,0.09 c -0.51,0.07 -1.24,0.15 -2.14,0.23 a 59.54,59.54 0 0 1 -7.09,0.14 58.92,58.92 0 0 1 -7.06,-0.75 c -0.89,-0.16 -1.61,-0.3 -2.11,-0.41 l -0.56,-0.14 -0.2,-0.06 h 0.2 l 0.58,0.1 c 0.5,0.09 1.22,0.21 2.12,0.34 a 67.74,67.74 0 0 0 7,0.69 68.57,68.57 0 0 0 7.07,-0.08 l 2.14,-0.16 0.58,-0.05 z"
       style="fill:#fafafa"
       id="path454" />
    <path
       d="m 268,291.75 c 0,0.06 -2.87,0.31 -6.41,0.56 -3.54,0.25 -6.43,0.41 -6.43,0.36 0,-0.05 2.86,-0.31 6.41,-0.57 3.55,-0.26 6.43,-0.41 6.43,-0.35 z"
       style="fill:#fafafa"
       id="path456" />
    <path
       d="m 249.16,304.43 a 2.66,2.66 0 0 1 -0.53,0 c -0.34,0 -0.84,-0.06 -1.44,-0.14 a 31.29,31.29 0 0 1 -4.67,-1 30.41,30.41 0 0 1 -4.46,-1.72 c -0.55,-0.27 -1,-0.49 -1.28,-0.66 a 1.77,1.77 0 0 1 -0.45,-0.29 l 0.48,0.21 1.31,0.61 a 38.31,38.31 0 0 0 4.46,1.65 36.89,36.89 0 0 0 4.63,1.06 l 1.42,0.21 a 2.25,2.25 0 0 1 0.53,0.07 z"
       style="fill:#fafafa"
       id="path458" />
    <path
       d="m 260.46,283.88 c 0,0 -0.31,-1.1 -0.8,-3.1 -0.49,-2 -1.17,-4.9 -1.93,-8.5 -1.52,-7.21 -3.35,-17.22 -5.16,-28.31 a 48.89,48.89 0 0 1 -0.58,-8.19 29.08,29.08 0 0 1 1.2,-7.55 40,40 0 0 1 5.81,-11.53 73,73 0 0 1 5.45,-6.8 c 1.38,-1.54 2.18,-2.34 2.18,-2.34 0,0 -0.18,0.22 -0.54,0.62 L 264.5,210 a 75.29,75.29 0 0 0 -5.4,6.84 40.07,40.07 0 0 0 -5.73,11.5 29.13,29.13 0 0 0 -1.17,7.5 49.61,49.61 0 0 0 0.57,8.15 c 1.81,11.08 3.62,21.1 5.11,28.31 0.74,3.6 1.39,6.51 1.86,8.51 q 0.33,1.46 0.54,2.31 z"
       style="fill:#fafafa"
       id="path460" />
    <path
       d="m 260.44,296.87 a 3,3 0 0 1 -0.35,-0.35 9.27,9.27 0 0 1 -0.86,-1.06 12.95,12.95 0 0 1 -2.26,-8.53 9.68,9.68 0 0 1 0.22,-1.35 2.77,2.77 0 0 1 0.13,-0.48 c 0.05,0 -0.12,0.7 -0.2,1.84 a 13.72,13.72 0 0 0 2.24,8.44 c 0.64,0.94 1.11,1.46 1.08,1.49 z"
       style="fill:#fafafa"
       id="path462" />
    <path
       d="m 250.44,305.29 a 4,4 0 0 1 -0.52,-1 11.82,11.82 0 0 1 -0.77,-2.65 12,12 0 0 1 -0.14,-2.76 5,5 0 0 1 0.16,-1.13 9.06,9.06 0 0 1 0,1.14 15,15 0 0 0 0.21,2.71 14.81,14.81 0 0 0 0.69,2.64 10.35,10.35 0 0 1 0.37,1.05 z"
       style="fill:#fafafa"
       id="path464" />
    <path
       d="m 240,297.55 a 3,3 0 0 1 -0.26,-0.43 12.2,12.2 0 0 1 -0.56,-1.23 15.54,15.54 0 0 1 -1,-4.34 15.81,15.81 0 0 1 0.27,-4.45 10.23,10.23 0 0 1 0.35,-1.3 2.43,2.43 0 0 1 0.18,-0.47 c 0,0 -0.18,0.69 -0.38,1.8 a 16.69,16.69 0 0 0 0.74,8.71 c 0.38,1.07 0.71,1.69 0.66,1.71 z"
       style="fill:#fafafa"
       id="path466" />
    <path
       d="m 240.15,307.28 a 1.54,1.54 0 0 1 -0.08,-0.37 c 0,-0.25 -0.1,-0.6 -0.15,-1 -0.1,-0.88 -0.2,-2.11 -0.24,-3.46 -0.04,-1.35 0,-2.58 0.06,-3.46 0,-0.44 0.06,-0.8 0.09,-1.05 a 1.17,1.17 0 0 1 0.07,-0.38 12.25,12.25 0 0 1 0,1.43 c 0,0.89 0,2.11 0,3.46 0,1.35 0.11,2.56 0.18,3.44 a 10.61,10.61 0 0 1 0.07,1.39 z"
       style="fill:#fafafa"
       id="path468" />
    <path
       d="m 212.42,242.39 c 0.05,0 6.14,9.34 13.6,20.92 7.46,11.58 13.48,21 13.43,21 -0.05,0 -6.14,-9.33 -13.6,-20.92 -7.46,-11.59 -13.47,-20.97 -13.43,-21 z"
       style="fill:#fafafa"
       id="path470" />
    <path
       d="m 236.19,245.77 c 0,0 0.05,0.14 0.13,0.4 l 0.35,1.15 c 0.29,1 0.73,2.46 1.3,4.24 1.13,3.57 2.83,8.46 5,13.75 2.17,5.29 4.41,9.95 6.11,13.28 0.85,1.67 1.56,3 2.06,3.93 0.22,0.42 0.41,0.77 0.56,1.07 0.15,0.3 0.19,0.37 0.19,0.37 l -0.22,-0.35 -0.6,-1.05 c -0.52,-0.91 -1.25,-2.24 -2.12,-3.9 -1.74,-3.32 -4,-8 -6.18,-13.27 -2.18,-5.27 -3.84,-10.2 -4.94,-13.78 -0.55,-1.79 -1,-3.25 -1.24,-4.26 l -0.31,-1.17 c -0.07,-0.27 -0.09,-0.41 -0.09,-0.41 z"
       style="fill:#fafafa"
       id="path472" />
    <path
       d="m 218,273.63 c 0,0 -0.15,-0.13 -0.43,-0.41 l -1.2,-1.22 c -0.53,-0.53 -1.18,-1.18 -1.88,-2 -0.7,-0.82 -1.54,-1.67 -2.37,-2.73 -0.83,-1.06 -1.78,-2.17 -2.7,-3.45 -0.92,-1.28 -1.89,-2.65 -2.88,-4.12 a 82.75,82.75 0 0 1 -9.75,-20.83 c -0.49,-1.7 -1,-3.31 -1.32,-4.85 -0.32,-1.54 -0.68,-3 -0.92,-4.29 -0.24,-1.29 -0.42,-2.51 -0.58,-3.57 -0.16,-1.06 -0.26,-2 -0.32,-2.71 l -0.16,-1.71 c 0,-0.4 0,-0.6 0,-0.6 0,0 0,0.2 0.08,0.59 0.08,0.39 0.12,1 0.2,1.72 0.08,0.72 0.18,1.65 0.36,2.7 0.18,1.05 0.31,2.25 0.6,3.56 0.29,1.31 0.54,2.75 0.94,4.27 0.4,1.52 0.85,3.14 1.34,4.84 a 93,93 0 0 0 4.16,10.72 90.88,90.88 0 0 0 5.57,10.05 c 1,1.47 1.9,2.88 2.86,4.13 0.96,1.25 1.83,2.42 2.68,3.46 0.85,1.04 1.65,1.94 2.34,2.75 0.69,0.81 1.32,1.47 1.85,2 l 1.19,1.25 z"
       style="fill:#fafafa"
       id="path474" />
    <path
       d="m 206.78,235.93 a 5.38,5.38 0 0 1 -0.7,-0.12 l -1.88,-0.38 c -1.59,-0.32 -3.79,-0.73 -6.24,-1.11 -2.45,-0.38 -4.67,-0.66 -6.28,-0.84 l -1.91,-0.21 -0.7,-0.09 a 3.87,3.87 0 0 1 0.71,0 l 1.92,0.15 c 1.61,0.14 3.84,0.39 6.29,0.77 2.45,0.38 4.65,0.82 6.24,1.18 0.79,0.17 1.43,0.33 1.87,0.44 a 4.6,4.6 0 0 1 0.68,0.21 z"
       style="fill:#fafafa"
       id="path476" />
    <path
       d="m 204.65,259.89 -0.17,0.49 c -0.14,0.37 -0.31,0.83 -0.51,1.39 -0.45,1.2 -1,3 -1.68,5.16 -1.33,4.39 -2.64,10.6 -4.26,17.41 a 82.85,82.85 0 0 1 -5.72,17 44.87,44.87 0 0 1 -2.67,4.74 c -0.71,1.07 -1.14,1.63 -1.14,1.63 l 0.27,-0.43 c 0.18,-0.29 0.47,-0.69 0.8,-1.24 a 47.73,47.73 0 0 0 2.6,-4.76 84.79,84.79 0 0 0 5.65,-17 c 1.62,-6.81 3,-13 4.33,-17.4 a 61.18,61.18 0 0 1 2.5,-6.99 z"
       style="fill:#fafafa"
       id="path478" />
    <path
       d="m 195.79,246.48 c 0.05,0 -2.13,6.84 -4.88,15.23 -2.75,8.39 -5,15.19 -5.09,15.17 -0.09,-0.02 2.13,-6.84 4.89,-15.23 2.76,-8.39 5.02,-15.19 5.08,-15.17 z"
       style="fill:#fafafa"
       id="path480" />
    <path
       d="m 204.91,274.91 a 1.77,1.77 0 0 1 -0.16,-0.27 l -0.42,-0.79 c -0.36,-0.68 -0.91,-1.66 -1.63,-2.84 a 53.14,53.14 0 0 0 -14.62,-15.69 c -1.12,-0.8 -2.06,-1.42 -2.72,-1.82 l -0.75,-0.48 c -0.17,-0.11 -0.26,-0.17 -0.25,-0.18 a 1.2,1.2 0 0 1 0.27,0.14 l 0.78,0.45 c 0.67,0.38 1.62,1 2.76,1.77 a 50.73,50.73 0 0 1 14.66,15.74 c 0.7,1.19 1.23,2.18 1.57,2.88 0.14,0.3 0.27,0.56 0.39,0.8 a 2.94,2.94 0 0 1 0.12,0.29 z"
       style="fill:#fafafa"
       id="path482" />
    <path
       d="m 198.31,294.48 a 1.3,1.3 0 0 1 0,-0.27 c 0,-0.24 0,-0.49 0,-0.78 0,-0.29 0,-0.74 -0.11,-1.21 -0.11,-0.47 -0.1,-1 -0.22,-1.6 a 25.39,25.39 0 0 0 -1.06,-4.07 26,26 0 0 0 -5.2,-8.81 26.34,26.34 0 0 0 -3,-2.89 c -0.46,-0.39 -0.91,-0.69 -1.3,-1 a 10,10 0 0 0 -1,-0.68 l -0.65,-0.42 -0.23,-0.15 a 19.63,19.63 0 0 1 3.28,2.1 24.73,24.73 0 0 1 3.1,2.88 25.18,25.18 0 0 1 5.24,8.88 23.48,23.48 0 0 1 1,4.1 19.6,19.6 0 0 1 0.15,3.92 z"
       style="fill:#fafafa"
       id="path484" />
    <path
       d="m 185.1,309.74 0.06,-0.18 0.2,-0.52 c 0.18,-0.44 0.42,-1.09 0.71,-1.9 a 51.42,51.42 0 0 0 1.88,-6.41 54.06,54.06 0 0 0 1,-6.6 c 0.07,-0.86 0.13,-1.55 0.15,-2 l 0.05,-0.55 c 0,-0.12 0,-0.19 0,-0.19 0,0 0,0.07 0,0.2 v 0.55 c 0,0.48 0,1.17 -0.1,2 a 46.55,46.55 0 0 1 -1,6.64 46.06,46.06 0 0 1 -1.94,6.42 c -0.31,0.8 -0.58,1.44 -0.78,1.87 l -0.23,0.5 c 0.04,0.12 0.01,0.18 0,0.17 z"
       style="fill:#fafafa"
       id="path486" />
    <path
       d="m 172.21,259.11 c 0,0 0.14,0.72 0.32,2 0.18,1.28 0.39,3.24 0.56,5.62 0.4,4.76 0.41,11.36 1.16,18.59 a 62.12,62.12 0 0 0 1.9,10.05 39.84,39.84 0 0 0 3,7.77 31.37,31.37 0 0 0 3.05,4.73 c 0.39,0.54 0.76,0.91 1,1.18 0.24,0.27 0.34,0.42 0.34,0.42 0,0 -0.54,-0.47 -1.36,-1.47 a 30,30 0 0 1 -3.11,-4.71 39.81,39.81 0 0 1 -3.11,-7.78 61.53,61.53 0 0 1 -1.91,-10.09 c -0.75,-7.24 -0.75,-13.84 -1.11,-18.6 -0.15,-2.37 -0.33,-4.29 -0.49,-5.62 -0.08,-0.61 -0.14,-1.11 -0.19,-1.52 -0.05,-0.41 -0.05,-0.57 -0.05,-0.57 z"
       style="fill:#fafafa"
       id="path488" />
    <path
       d="m 170.88,244.6 a 3.67,3.67 0 0 1 0.16,0.53 c 0.09,0.35 0.2,0.85 0.33,1.48 a 41.24,41.24 0 0 1 0.64,4.93 40,40 0 0 1 0,5 c 0,0.64 -0.08,1.15 -0.13,1.5 a 3.56,3.56 0 0 1 -0.08,0.55 2.6,2.6 0 0 1 0,-0.55 c 0,-0.48 0,-1 0.06,-1.51 0,-1.26 0,-3 -0.09,-4.95 -0.09,-1.95 -0.38,-3.68 -0.59,-4.93 -0.09,-0.52 -0.18,-1 -0.26,-1.48 a 2.66,2.66 0 0 1 -0.04,-0.57 z"
       style="fill:#fafafa"
       id="path490" />
    <path
       d="m 183.23,266.21 a 14.79,14.79 0 0 1 -3,1.6 18.89,18.89 0 0 1 -3.52,1.08 20,20 0 0 1 -8.94,-0.17 18.79,18.79 0 0 1 -3.47,-1.21 15.66,15.66 0 0 1 -2.92,-1.71 c 0,0 0.08,0 0.21,0.11 l 0.58,0.34 a 8.89,8.89 0 0 0 0.92,0.52 c 0.37,0.18 0.78,0.42 1.27,0.61 a 20.1,20.1 0 0 0 3.45,1.16 23,23 0 0 0 4.42,0.56 22,22 0 0 0 4.44,-0.4 20.57,20.57 0 0 0 3.5,-1 c 0.49,-0.17 0.91,-0.4 1.29,-0.57 a 8.09,8.09 0 0 0 0.94,-0.48 l 0.59,-0.32 z"
       style="fill:#fafafa"
       id="path492" />
    <path
       d="m 186.38,279 a 7.19,7.19 0 0 1 -0.62,0.79 11.55,11.55 0 0 1 -2,1.85 17.2,17.2 0 0 1 -8.5,2.94 35.31,35.31 0 0 1 -9,-0.64 c -1.14,-0.21 -2.06,-0.4 -2.69,-0.54 l -0.73,-0.16 -0.25,-0.07 a 0.86,0.86 0 0 1 0.26,0 l 0.73,0.12 2.71,0.47 a 36.78,36.78 0 0 0 9,0.58 17.52,17.52 0 0 0 8.44,-2.85 12.32,12.32 0 0 0 2.06,-1.78 c 0.35,-0.48 0.57,-0.77 0.59,-0.71 z"
       style="fill:#fafafa"
       id="path494" />
    <path
       d="m 187.54,291.21 a 7.37,7.37 0 0 1 -0.34,0.92 10.5,10.5 0 0 1 -1.39,2.28 14.5,14.5 0 0 1 -7.35,4.69 25.91,25.91 0 0 1 -8.75,0.7 c -1.13,-0.08 -2,-0.18 -2.66,-0.27 l -0.72,-0.1 a 0.79,0.79 0 0 1 -0.25,-0.05 1.29,1.29 0 0 1 0.26,0 l 0.72,0.06 c 0.63,0.06 1.53,0.14 2.65,0.2 a 26.83,26.83 0 0 0 8.7,-0.75 14.65,14.65 0 0 0 7.28,-4.58 11.45,11.45 0 0 0 1.44,-2.22 c 0.27,-0.56 0.39,-0.89 0.41,-0.88 z"
       style="fill:#fafafa"
       id="path496" />
    <path
       d="m 312.63,296.45 c 0,0.06 -2.67,1.19 -6,2.52 -3.33,1.33 -6.09,2.39 -6.11,2.33 -0.02,-0.06 2.68,-1.18 6,-2.52 3.32,-1.34 6.09,-2.38 6.11,-2.33 z"
       style="fill:#fafafa"
       id="path498" />
    <path
       d="m 307.18,281.88 a 2.71,2.71 0 0 1 -0.68,0.54 9.28,9.28 0 0 1 -1.9,0.95 8.91,8.91 0 0 1 -2.06,0.5 2.64,2.64 0 0 1 -0.88,0 21.41,21.41 0 0 0 2.87,-0.71 22.23,22.23 0 0 0 2.65,-1.28 z"
       style="fill:#fafafa"
       id="path500" />
    <path
       d="m 304.76,267 a 5.86,5.86 0 0 1 -1.54,0.25 6,6 0 0 1 -1.56,0 5.44,5.44 0 0 1 1.54,-0.24 6.29,6.29 0 0 1 1.56,-0.01 z"
       style="fill:#fafafa"
       id="path502" />
    <path
       d="m 301.94,257.64 a 3.24,3.24 0 0 1 -1,-0.55 3.28,3.28 0 0 1 -0.85,-0.72 2.79,2.79 0 0 1 1,0.55 3,3 0 0 1 0.85,0.72 z"
       style="fill:#fafafa"
       id="path504" />
    <path
       d="m 298.91,248.21 c 0,0 0.06,0.2 0.15,0.57 0.09,0.37 0.23,1 0.38,1.64 0.33,1.43 0.76,3.51 1.22,6.09 a 140.88,140.88 0 0 1 2,20.34 65.09,65.09 0 0 0 0.92,11.2 23.42,23.42 0 0 0 1.44,4.67 c 0.61,1.4 1.31,2.66 1.87,3.84 a 12.7,12.7 0 0 1 1.58,6 6.48,6.48 0 0 1 -0.25,1.67 3.69,3.69 0 0 1 -0.19,0.56 c 0,0 0.06,-0.2 0.15,-0.57 a 6.8,6.8 0 0 0 0.21,-1.66 12.85,12.85 0 0 0 -1.63,-5.89 c -0.57,-1.18 -1.27,-2.43 -1.9,-3.84 a 23.73,23.73 0 0 1 -1.47,-4.7 64.55,64.55 0 0 1 -0.94,-11.23 146.6,146.6 0 0 0 -2,-20.33 c -0.43,-2.58 -0.84,-4.66 -1.14,-6.09 -0.15,-0.67 -0.26,-1.22 -0.35,-1.65 -0.09,-0.43 -0.05,-0.62 -0.05,-0.62 z"
       style="fill:#fafafa"
       id="path506" />
    <g
       style="opacity:0.3"
       id="g510">
      <path
         d="m 182.91,264.43 a 73.91,73.91 0 0 1 6.73,11.1 29.32,29.32 0 0 1 3,12.54 c 0,3.47 -1.12,7.24 -4,9.18 a 110,110 0 0 0 -5.72,-32.46"
         id="path508" />
    </g>
    <g
       style="opacity:0.3"
       id="g514">
      <path
         d="m 206.16,233.28 c 0,3.42 2.63,6.2 5.08,8.58 4.82,4.69 10,9.59 16.62,10.91 0.1,-2.77 0.19,-5.53 0.29,-8.3 a 34.81,34.81 0 0 1 6.53,7.68 39.21,39.21 0 0 0 6.62,-14.78 116.88,116.88 0 0 0 2.34,-16.14 L 235.85,246 a 9.54,9.54 0 0 0 -3.13,-5.34 5.38,5.38 0 0 0 -3.45,-1.44 5,5 0 0 0 -4.26,3.41 14.86,14.86 0 0 0 -0.63,5.72 77.51,77.51 0 0 1 -18.08,-14.74"
         id="path512" />
    </g>
    <g
       style="opacity:0.3"
       id="g518">
      <path
         d="m 239.88,307.14 a 34,34 0 0 1 10.66,-4.94 c 2.85,-0.75 5.87,-1.17 8.34,-2.77 2.31,-1.49 3.89,-3.86 5.4,-6.15 a 21.63,21.63 0 0 0 3.36,-6.72 18.43,18.43 0 0 0 0.16,-5.93 c -0.52,-5.32 -1.7,-10.54 -2.29,-15.85 -0.59,-5.31 -0.51,-10.78 1.27,-15.78 1.41,16.08 3.32,32.19 4.73,48.27 -10.29,3.26 -21.07,6.49 -31.37,9.75"
         id="path516" />
    </g>
    <path
       d="m 217.9,177.43 c 0.14,-0.19 6.18,-6.46 10.18,1.08 4,7.54 -4.4,10 -4.53,9.79 -0.13,-0.21 -5.65,-10.87 -5.65,-10.87 z"
       style="fill:#ffbe9d"
       id="path520" />
    <path
       d="m 224.34,184.23 c 0,0 0.18,0 0.46,0 a 1.43,1.43 0 0 0 1,-0.5 c 0.64,-0.71 0.64,-2.33 0,-3.71 a 4.81,4.81 0 0 0 -1.36,-1.69 1.73,1.73 0 0 0 -1.53,-0.48 0.76,0.76 0 0 0 -0.58,0.77 c 0,0.26 0.14,0.39 0.1,0.42 -0.04,0.03 -0.22,0 -0.33,-0.38 a 0.94,0.94 0 0 1 0,-0.63 1.14,1.14 0 0 1 0.62,-0.58 2.09,2.09 0 0 1 2,0.44 5,5 0 0 1 1.57,1.86 c 0.76,1.55 0.74,3.38 -0.19,4.28 a 1.55,1.55 0 0 1 -1.3,0.43 c -0.35,-0.06 -0.48,-0.21 -0.46,-0.23 z"
       style="fill:#eb996e"
       id="path522" />
    <path
       d="m 183.9,162.51 c -3.7,2.25 -7.46,4.54 -10.62,9.78 -2,3.3 -2.34,6.83 -2.08,10.67 a 18.5,18.5 0 0 0 3,8.73 c 1.67,2.43 2.75,4.19 5.16,5.88"
       style="fill:#263238"
       id="path524" />
    <path
       d="m 238.49,211 -22.16,-39.6 a 23,23 0 0 0 -30.61,-9.18 v 0 a 23,23 0 0 0 -9.67,31.31 c 5.08,9.4 10.67,19.51 13.79,24.41 6.71,10.53 18.34,5.6 18.34,5.6 0,0 1.69,3.3 3.81,7.38 l 15.86,8.78 z"
       style="fill:#ffbe9d"
       id="path526" />
    <path
       d="m 208.18,223.5 a 29.71,29.71 0 0 0 11.1,-12.5 c 0,0 1.5,9.71 -9.67,15.32 z"
       style="fill:#eb996e"
       id="path528" />
    <path
       d="m 184.63,198.38 a 1.78,1.78 0 0 0 2.37,0.62 1.71,1.71 0 0 0 0.72,-2.33 1.79,1.79 0 0 0 -2.41,-0.62 1.71,1.71 0 0 0 -0.68,2.33 z"
       style="fill:#263238"
       id="path530" />
    <path
       d="m 181,195.67 c 0.31,0.08 0.93,-1.48 2.56,-2.48 1.63,-1 3.33,-0.94 3.39,-1.25 0,-0.14 -0.38,-0.37 -1.14,-0.43 a 4.83,4.83 0 0 0 -2.86,0.75 4.75,4.75 0 0 0 -1.89,2.22 c -0.3,0.7 -0.25,1.16 -0.06,1.19 z"
       style="fill:#263238"
       id="path532" />
    <path
       d="m 200.55,188.37 a 1.78,1.78 0 0 0 2.45,0.63 1.7,1.7 0 0 0 0.71,-2.33 1.76,1.76 0 0 0 -2.4,-0.62 1.69,1.69 0 0 0 -0.76,2.32 z"
       style="fill:#263238"
       id="path534" />
    <path
       d="m 197.16,186 c 0.31,0.08 0.94,-1.48 2.57,-2.48 1.63,-1 3.33,-0.94 3.38,-1.25 0,-0.14 -0.38,-0.38 -1.14,-0.43 a 4.86,4.86 0 0 0 -2.86,0.75 4.66,4.66 0 0 0 -1.88,2.22 C 197,185.55 197,186 197.16,186 Z"
       style="fill:#263238"
       id="path536" />
    <path
       d="M 198.75,201.79 A 13,13 0 0 0 195.8,203 c -0.44,0.21 -0.89,0.37 -1.13,0.13 a 2.44,2.44 0 0 1 -0.49,-1.4 c -0.23,-1.25 -0.48,-2.56 -0.73,-3.93 -1.09,-5.57 -2.16,-10 -2.38,-10 -0.22,0 0.48,4.59 1.57,10.16 0.27,1.37 0.54,2.68 0.79,3.92 a 2.86,2.86 0 0 0 0.8,1.77 1.21,1.21 0 0 0 1.06,0.18 2.91,2.91 0 0 0 0.77,-0.34 12.13,12.13 0 0 0 2.69,-1.7 z"
       style="fill:#263238"
       id="path538" />
    <path
       d="m 203.24,207.53 c 0.29,-0.12 -0.62,-2 0.32,-4.1 0.94,-2.1 3,-2.89 2.92,-3.16 -0.08,-0.27 -0.62,-0.14 -1.47,0.25 a 5.21,5.21 0 0 0 -2.49,2.53 4.51,4.51 0 0 0 -0.15,3.38 c 0.32,0.82 0.75,1.17 0.87,1.1 z"
       style="fill:#263238"
       id="path540" />
    <path
       d="m 201,176.35 c -0.43,-0.35 -2,0.85 -4,1.77 -2,0.92 -3.94,1.33 -4,1.88 0,0.27 0.53,0.52 1.41,0.58 a 7.64,7.64 0 0 0 6.08,-2.78 c 0.51,-0.71 0.7,-1.28 0.51,-1.45 z"
       style="fill:#263238"
       id="path542" />
    <path
       d="m 182,186.58 c -0.54,0 -1.08,1.25 -2.11,2.46 -1.03,1.21 -2.15,2 -2,2.55 0.07,0.24 0.54,0.37 1.24,0.2 a 4.44,4.44 0 0 0 2.27,-1.51 4.36,4.36 0 0 0 1,-2.52 c 0.06,-0.76 -0.16,-1.15 -0.4,-1.18 z"
       style="fill:#263238"
       id="path544" />
    <path
       d="m 218.51,174.66 c 0,0 1.14,2.43 1.69,3.62 0.2,0.43 2.63,5.33 1.67,6.23 -0.96,0.9 -3.22,1.05 -5.2,-0.31 -1.98,-1.36 -6.29,-4.87 -7.36,-7 A 33.89,33.89 0 0 0 204,169 a 14,14 0 0 0 -8.39,-4.64 8.88,8.88 0 0 0 -8.51,3.71 c -1.06,1.71 -1.38,3.78 -2.24,5.61 a 7.47,7.47 0 0 1 -3.69,3.82 4.86,4.86 0 0 1 -5.1,-0.72 5.3,5.3 0 0 1 -1.05,-5.51 12.1,12.1 0 0 1 3.49,-4.73 29.26,29.26 0 0 1 14.49,-7.49 21.12,21.12 0 0 1 15.74,3.1 c 5.19,3.65 7.07,6.75 9.8,12.51"
       style="fill:#263238"
       id="path546" />
    <path
       d="m 175.66,176.24 c -0.44,-0.49 -0.45,-0.91 -0.9,-0.94 -0.45,-0.03 -0.77,1 -0.85,1.46 0,0.14 -0.48,0 -0.62,0 a 2.35,2.35 0 0 1 -0.62,-0.6 c -0.19,-0.41 0.36,-0.88 0.48,-1.32 a 3.44,3.44 0 0 1 0.66,-1.18 1.11,1.11 0 0 1 1,-0.53 1.1,1.1 0 0 1 0.66,0.59 2.31,2.31 0 0 1 0.31,0.84 1.23,1.23 0 0 1 -0.18,0.86"
       style="fill:#263238"
       id="path548" />
    <path
       d="m 195.69,223.29 c 0,0 -0.12,0 -0.33,-0.12 a 7.77,7.77 0 0 1 -0.9,-0.48 13.64,13.64 0 0 1 -2.86,-2.41 c -2.21,-2.29 -4.5,-6 -6.77,-10.25 -2.27,-4.25 -4.41,-8 -5.9,-10.76 L 177.2,196 a 7.42,7.42 0 0 1 -0.58,-1.25 7.07,7.07 0 0 1 0.75,1.15 c 0.5,0.84 1.13,1.92 1.88,3.21 1.57,2.72 3.71,6.49 6,10.69 2.29,4.2 4.49,7.94 6.59,10.25 a 17.88,17.88 0 0 0 3.85,3.24 z"
       style="fill:#eb996e"
       id="path550" />
  </g>
  <g
     transform="translate(7.5478039,-2.626971)"
     id="thought-bubble--inject-10">
    <circle
       cx="82.599998"
       cy="152.25999"
       r="40.650002"
       transform="rotate(-77.32,82.590395,152.25464)"
       style="fill:#ffffff"
       id="circle553" />
    <path
       d="m 125.8,181.83 c 0,0 -0.45,0.07 -1.17,0.37 a 5.35,5.35 0 0 0 -2.47,2.12 5,5 0 0 0 -0.76,2.11 4.48,4.48 0 0 0 0.44,2.5 4.89,4.89 0 0 0 9.16,-0.55 4.5,4.5 0 0 0 0.14,-2.53 5.07,5.07 0 0 0 -1,-2 5.53,5.53 0 0 0 -2.7,-1.81 c -0.76,-0.21 -1.21,-0.18 -1.21,-0.22 0,-0.04 0.11,0 0.32,0 a 1.93,1.93 0 0 1 0.4,0 2.84,2.84 0 0 1 0.52,0.09 5.29,5.29 0 0 1 2.88,1.78 5.39,5.39 0 0 1 1.1,2.1 4.74,4.74 0 0 1 -0.12,2.73 5.62,5.62 0 0 1 -1.71,2.48 4.93,4.93 0 0 1 -6.1,0.36 5.51,5.51 0 0 1 -2,-2.26 4.71,4.71 0 0 1 -0.45,-2.69 5.49,5.49 0 0 1 3.49,-4.33 2.64,2.64 0 0 1 0.52,-0.15 2.41,2.41 0 0 1 0.38,-0.07 1.17,1.17 0 0 1 0.34,-0.03 z"
       style="fill:#263238"
       id="path555" />
    <path
       d="m 138.74,194.7 c 0,0 -0.28,0.06 -0.73,0.25 a 3.44,3.44 0 0 0 -1.52,1.34 2.86,2.86 0 0 0 -0.18,2.84 3,3 0 0 0 5.64,-0.33 2.9,2.9 0 0 0 -0.52,-2.81 3.37,3.37 0 0 0 -1.67,-1.14 c -0.47,-0.14 -0.75,-0.13 -0.75,-0.17 a 1.52,1.52 0 0 1 0.79,0 3.46,3.46 0 0 1 2.55,2.46 3,3 0 0 1 -0.07,1.75 3.35,3.35 0 0 1 -6.29,0.38 3,3 0 0 1 -0.28,-1.73 3.46,3.46 0 0 1 0.55,-1.42 3.43,3.43 0 0 1 1.7,-1.33 1.47,1.47 0 0 1 0.78,-0.09 z"
       style="fill:#263238"
       id="path557" />
    <path
       d="m 123.65,155.46 c 0,0 0,-0.22 0,-0.66 0,-0.44 0,-1.11 0,-2 q 0,-0.65 0,-1.44 c 0,-0.53 -0.08,-1.11 -0.12,-1.73 -0.04,-0.62 -0.1,-1.3 -0.16,-2 a 6.16,6.16 0 0 0 -0.15,-1.11 q -0.11,-0.57 -0.21,-1.17 a 38.91,38.91 0 0 0 -3.68,-11.24 40.74,40.74 0 0 0 -9.48,-12.41 l -1.66,-1.45 c -0.59,-0.46 -1.21,-0.88 -1.83,-1.33 l -0.93,-0.67 a 9,9 0 0 0 -1,-0.64 l -2,-1.18 -1,-0.6 -1.1,-0.5 -2.23,-1 c -0.76,-0.32 -1.57,-0.55 -2.36,-0.84 l -1.2,-0.41 c -0.2,-0.06 -0.4,-0.14 -0.6,-0.19 l -0.62,-0.15 a 38.63,38.63 0 0 0 -5.12,-1 c -0.88,-0.1 -1.76,-0.26 -2.65,-0.31 l -2.71,-0.07 c -0.46,0 -0.92,-0.05 -1.37,0 l -1.38,0.1 c -0.92,0.08 -1.85,0.11 -2.78,0.23 a 43.81,43.81 0 0 0 -5.57,1.17 l -1.39,0.39 -0.7,0.2 -0.68,0.27 -2.73,1.07 c -0.9,0.4 -1.77,0.87 -2.66,1.31 -0.44,0.24 -0.91,0.43 -1.33,0.7 L 61,117.6 a 45.68,45.68 0 0 0 -4.93,3.57 l -2.26,2.12 -0.56,0.54 c -0.18,0.19 -0.35,0.39 -0.52,0.58 l -1,1.18 -1,1.18 -0.92,1.28 -0.93,1.28 -0.46,0.65 c -0.15,0.22 -0.27,0.46 -0.41,0.69 l -1.61,2.77 -1.4,2.93 a 40.55,40.55 0 0 0 -2,25.75 l 0.87,3.11 c 0.39,1 0.77,2 1.16,3 l 0.29,0.74 0.36,0.71 0.72,1.42 0.71,1.4 0.84,1.33 0.84,1.33 0.42,0.65 0.48,0.62 1.89,2.45 a 47.34,47.34 0 0 0 4.33,4.29 l 1.13,1 c 0.37,0.34 0.8,0.6 1.2,0.9 0.81,0.57 1.59,1.18 2.42,1.72 l 2.54,1.47 0.63,0.37 c 0.21,0.11 0.44,0.2 0.66,0.31 l 1.31,0.6 a 43,43 0 0 0 5.32,2 c 0.9,0.26 1.81,0.44 2.71,0.66 l 1.34,0.31 c 0.45,0.1 0.91,0.13 1.36,0.2 l 2.69,0.35 c 0.9,0.08 1.79,0.07 2.67,0.1 a 39.09,39.09 0 0 0 5.21,-0.19 l 0.64,-0.05 c 0.21,0 0.42,-0.07 0.63,-0.1 l 1.24,-0.22 c 0.83,-0.16 1.66,-0.26 2.46,-0.46 l 2.36,-0.66 1.17,-0.32 1.12,-0.43 2.2,-0.85 a 10,10 0 0 0 1,-0.48 l 1,-0.52 c 0.67,-0.35 1.36,-0.67 2,-1 l 1.87,-1.18 a 40.76,40.76 0 0 0 11.28,-10.78 c 0.34,-0.47 0.68,-0.93 1,-1.39 l 0.83,-1.42 0.8,-1.36 c 0.12,-0.23 0.26,-0.44 0.38,-0.67 0.12,-0.23 0.21,-0.46 0.31,-0.68 0.42,-0.9 0.81,-1.77 1.19,-2.59 0.38,-0.82 0.59,-1.66 0.87,-2.42 l 0.39,-1.13 a 6.21,6.21 0 0 0 0.32,-1.07 c 0.17,-0.7 0.32,-1.36 0.47,-2 0.15,-0.64 0.29,-1.17 0.39,-1.69 0.1,-0.52 0.14,-1 0.19,-1.43 0.12,-0.84 0.21,-1.49 0.27,-1.94 0.06,-0.45 0.11,-0.66 0.11,-0.66 0,0 0,0.23 -0.07,0.67 -0.07,0.44 -0.13,1.09 -0.23,1.94 0,0.43 -0.11,0.91 -0.18,1.43 -0.07,0.52 -0.24,1.09 -0.37,1.7 l -0.45,2 a 7.55,7.55 0 0 1 -0.31,1.07 c -0.13,0.37 -0.25,0.75 -0.39,1.13 -0.27,0.77 -0.5,1.61 -0.86,2.44 -0.36,0.83 -0.76,1.7 -1.18,2.61 l -0.31,0.68 c -0.11,0.23 -0.25,0.45 -0.38,0.68 l -0.79,1.37 -0.83,1.43 c -0.31,0.47 -0.66,0.93 -1,1.4 A 41,41 0 0 1 105,186.89 l -1.87,1.19 c -0.66,0.36 -1.35,0.69 -2,1 l -1,0.53 a 9.25,9.25 0 0 1 -1.06,0.48 l -2.21,0.87 -1.13,0.43 -1.17,0.33 -2.38,0.67 c -0.81,0.2 -1.64,0.31 -2.47,0.47 l -1.26,0.22 c -0.21,0 -0.42,0.08 -0.63,0.1 l -0.65,0.05 a 39.6,39.6 0 0 1 -5.25,0.21 c -0.88,0 -1.79,0 -2.69,-0.1 L 76.45,193 c -0.45,-0.07 -0.91,-0.1 -1.37,-0.19 l -1.35,-0.32 c -0.91,-0.22 -1.83,-0.4 -2.74,-0.66 a 43.58,43.58 0 0 1 -5.36,-2 l -1.33,-0.61 c -0.22,-0.1 -0.45,-0.19 -0.67,-0.31 L 63,188.55 60.44,187.06 c -0.84,-0.54 -1.63,-1.15 -2.45,-1.73 -0.4,-0.3 -0.83,-0.57 -1.21,-0.9 l -1.14,-1 a 47,47 0 0 1 -4.37,-4.33 l -1.91,-2.47 -0.48,-0.62 -0.43,-0.66 -0.84,-1.35 -0.85,-1.34 -0.76,-1.41 -0.72,-1.43 -0.36,-0.71 -0.3,-0.75 -1.17,-3 c -0.29,-1 -0.59,-2.09 -0.88,-3.14 a 40.92,40.92 0 0 1 2,-26 c 0.45,-1 0.9,-2 1.36,-3 0.46,-1 1.08,-1.87 1.62,-2.79 l 0.41,-0.7 0.47,-0.65 0.93,-1.3 0.94,-1.28 1,-1.2 1,-1.18 c 0.17,-0.2 0.34,-0.4 0.52,-0.59 l 0.57,-0.54 2.28,-2.14 a 46.55,46.55 0 0 1 5,-3.6 l 1.28,-0.81 c 0.43,-0.27 0.9,-0.47 1.34,-0.71 0.9,-0.44 1.78,-0.92 2.68,-1.32 l 2.76,-1.08 0.69,-0.26 c 0.23,-0.08 0.47,-0.14 0.7,-0.2 l 1.41,-0.4 a 44.77,44.77 0 0 1 5.61,-1.17 c 0.94,-0.12 1.88,-0.15 2.81,-0.23 l 1.39,-0.1 c 0.46,0 0.92,0 1.38,0 l 2.73,0.08 c 0.9,0.06 1.79,0.21 2.68,0.32 a 39.09,39.09 0 0 1 5.15,1 l 0.63,0.15 0.61,0.2 1.2,0.42 c 0.8,0.29 1.61,0.52 2.37,0.84 l 2.25,1 1.11,0.51 c 0.35,0.19 0.69,0.4 1,0.6 l 2,1.2 a 7.85,7.85 0 0 1 1,0.64 l 0.93,0.68 c 0.62,0.46 1.25,0.88 1.84,1.34 l 1.67,1.47 a 41,41 0 0 1 9.69,12.58 39,39 0 0 1 3.64,11.31 c 0.07,0.41 0.14,0.8 0.2,1.18 a 7.32,7.32 0 0 1 0.14,1.11 c 0,0.73 0.1,1.4 0.14,2 0.04,0.6 0.1,1.21 0.11,1.74 0.01,0.53 0,1 0,1.44 0,0.85 -0.06,1.51 -0.08,2 -0.02,0.49 -0.08,0.68 -0.08,0.68 z"
       style="fill:#263238"
       id="path559" />
    <path
       d="m 76.77,130.5 1.48,23.41 a 3.8,3.8 0 0 0 3.57,3.55 v 0 a 3.8,3.8 0 0 0 4,-3.38 l 2.6,-23.52 a 3,3 0 0 0 -3,-3.31 l -5.71,0.08 a 3,3 0 0 0 -2.94,3.17 z"
       style="fill:#61dafb"
       id="path561" />
    <path
       d="M 88,170.62 A 5.71,5.71 0 1 1 84.38,163.4 5.7,5.7 0 0 1 88,170.62 Z"
       style="fill:#61dafb"
       id="path563" />
  </g>
</svg>
